<?xml version="1.0" encoding="UTF-8" standalone="no"?>
<!DOCTYPE svg PUBLIC "-//W3C//DTD SVG 1.1//EN" "http://www.w3.org/Graphics/SVG/1.1/DTD/svg11.dtd">
<svg width="100%" height="100%" viewBox="0 0 600 600" version="1.1" xmlns="http://www.w3.org/2000/svg" xmlns:xlink="http://www.w3.org/1999/xlink" xml:space="preserve" xmlns:serif="http://www.serif.com/" style="fill-rule:evenodd;clip-rule:evenodd;stroke-linejoin:round;stroke-miterlimit:2;">
    <rect id="Seite-1" serif:id="Seite 1" x="0" y="0" width="600" height="600" style="fill:none;"/>
    <clipPath id="_clip1">
        <rect id="Seite-11" serif:id="Seite 1" x="0" y="0" width="600" height="600"/>
    </clipPath>
    <g clip-path="url(#_clip1)">
        <g id="pattern-1">
            <g transform="matrix(1,0,0,1,0,-404.836)">
                <path d="M563.634,508.745L530.649,508.745L530.649,496.092L563.634,496.092L563.634,508.745ZM566.634,509.099L566.634,495.737C566.634,494.278 565.448,493.091 563.989,493.091L530.295,493.091C528.836,493.091 527.649,494.278 527.649,495.737L527.649,509.099C527.649,510.558 528.836,511.745 530.295,511.745L563.989,511.745C565.448,511.745 566.634,510.558 566.634,509.099" style="fill:white;fill-opacity:0.15;fill-rule:nonzero;"/>
            </g>
            <g transform="matrix(1,0,0,1,547.162,95.582)">
                <path d="M0,4C1.104,4 2,3.104 2,2C2,0.896 1.104,0 0,0L-0.01,0C-1.115,0 -2.005,0.896 -2.005,2C-2.005,3.104 -1.104,4 0,4" style="fill:white;fill-opacity:0.15;fill-rule:nonzero;"/>
            </g>
            <g transform="matrix(1,0,0,1,545.099,69.0903)">
                <path d="M0,-3L-11.56,-3C-12.388,-3 -13.06,-2.329 -13.06,-1.5C-13.06,-0.671 -12.388,0 -11.56,0L0,0C0.829,0 1.5,-0.671 1.5,-1.5C1.5,-2.329 0.829,-3 0,-3" style="fill:white;fill-opacity:0.15;fill-rule:nonzero;"/>
            </g>
            <g transform="matrix(1,0,0,1,551.132,69.0864)">
                <path d="M0,-3L-0.01,-3C-0.838,-3 -1.505,-2.329 -1.505,-1.5C-1.505,-0.671 -0.829,0 0,0C0.829,0 1.5,-0.671 1.5,-1.5C1.5,-2.329 0.829,-3 0,-3" style="fill:white;fill-opacity:0.15;fill-rule:nonzero;"/>
            </g>
            <g transform="matrix(1,0,0,1,547.142,14.0531)">
                <path d="M28.49,105.256L-28.49,105.256C-28.04,103.195 -26.822,101.611 -24.708,100.295L24.708,100.295C26.821,101.611 28.039,103.195 28.49,105.256ZM-23.26,70.763L23.259,70.763L23.259,96.295L-23.26,96.295L-23.26,70.763ZM-19.772,49.358L19.769,49.358C19.183,57.627 14.946,63.89 7.929,66.763L-7.942,66.763C-14.953,63.879 -19.186,57.615 -19.772,49.358M-23.26,43.595C-23.26,43.009 -22.783,42.532 -22.197,42.532L22.197,42.532C22.783,42.532 23.259,43.009 23.259,43.595L23.259,44.295C23.259,44.881 22.783,45.358 22.197,45.358L21.899,45.358C21.88,45.357 21.864,45.352 21.845,45.352C21.827,45.352 21.81,45.357 21.792,45.358L-21.796,45.358C-21.814,45.357 -21.831,45.352 -21.85,45.352C-21.868,45.352 -21.885,45.357 -21.903,45.358L-22.197,45.358C-22.783,45.358 -23.26,44.881 -23.26,44.295L-23.26,43.595ZM22.036,15.089L22.036,6.774C22.036,5.292 23.241,4.086 24.723,4.086L25.795,4.086C27.277,4.086 28.483,5.292 28.483,6.774L28.483,15.089C28.483,16.571 27.277,17.777 25.795,17.777L24.723,17.777C23.241,17.777 22.036,16.571 22.036,15.089M27.259,97.207L27.259,68.763C27.259,67.659 26.364,66.763 25.259,66.763L15.557,66.763C20.457,62.597 23.393,56.403 23.791,49.076C25.799,48.403 27.259,46.527 27.259,44.295L27.259,43.595C27.259,40.803 24.988,38.532 22.197,38.532L2,38.532L2,29.717L24.133,29.717C25.857,29.717 27.259,28.315 27.259,26.591L27.259,21.61C30.244,20.941 32.483,18.274 32.483,15.089L32.483,6.774C32.483,3.589 30.244,0.923 27.259,0.253L27.259,-2C27.259,-3.104 26.364,-4 25.259,-4C24.155,-4 23.259,-3.104 23.259,-2L23.259,0.253C20.274,0.923 18.036,3.589 18.036,6.774L18.036,15.089C18.036,18.274 20.274,20.941 23.259,21.61L23.259,25.717L1.126,25.717C-0.598,25.717 -2,27.119 -2,28.843L-2,38.532L-22.197,38.532C-24.989,38.532 -27.26,40.803 -27.26,43.595L-27.26,44.295C-27.26,46.525 -25.801,48.402 -23.795,49.075C-23.397,56.397 -20.459,62.592 -15.557,66.763L-25.26,66.763C-26.364,66.763 -27.26,67.659 -27.26,68.763L-27.26,97.207C-30.896,99.641 -32.692,102.932 -32.692,107.256C-32.692,108.36 -31.797,109.256 -30.692,109.256L30.692,109.256C31.796,109.256 32.692,108.36 32.692,107.256C32.692,102.932 30.896,99.641 27.259,97.207" style="fill:white;fill-opacity:0.15;fill-rule:nonzero;"/>
            </g>
            <g transform="matrix(1,0,0,1,126.324,263.137)">
                <path d="M0,-35.473C0,-34.922 -0.449,-34.473 -1,-34.473L-39.575,-34.473C-40.126,-34.473 -40.575,-34.922 -40.575,-35.473L-40.575,-36.388C-40.575,-38.042 -39.229,-39.388 -37.575,-39.388L-3,-39.388C-1.346,-39.388 0,-38.042 0,-36.388L0,-35.473ZM-10.949,10.102L-29.626,10.102C-30.894,10.102 -31.945,9.151 -32.071,7.889L-32.726,1.346L-7.85,1.346L-8.504,7.889C-8.63,9.151 -9.681,10.102 -10.949,10.102M-7.549,-1.654L-33.025,-1.654L-34.731,-18.713L-5.843,-18.713L-7.549,-1.654ZM-5.543,-21.713L-35.031,-21.713L-35.907,-30.473L-4.667,-30.473L-5.543,-21.713ZM-30.317,-46.575L-10.258,-46.575C-8.107,-46.575 -6.259,-45.258 -5.475,-43.388L-35.1,-43.388C-34.315,-45.258 -32.468,-46.575 -30.317,-46.575M-2.32,-43.354C-3.204,-46.92 -6.422,-49.575 -10.258,-49.575L-30.317,-49.575C-34.152,-49.575 -37.371,-46.92 -38.255,-43.354C-41.796,-43.011 -44.575,-40.018 -44.575,-36.388L-44.575,-35.473C-44.575,-32.838 -42.52,-30.696 -39.931,-30.509L-36.052,8.287C-35.72,11.602 -32.958,14.102 -29.626,14.102L-10.949,14.102C-7.618,14.102 -4.855,11.602 -4.523,8.287L-0.644,-30.509C1.945,-30.696 4,-32.838 4,-35.473L4,-36.388C4,-40.018 1.222,-43.011 -2.32,-43.354" style="fill:white;fill-opacity:0.15;fill-rule:nonzero;"/>
            </g>
            <g transform="matrix(1,0,0,1,106.037,256.757)">
                <path d="M0,-7.03C1.938,-7.03 3.515,-5.453 3.515,-3.515C3.515,-1.577 1.938,0 0,0C-1.938,0 -3.515,-1.577 -3.515,-3.515C-3.515,-5.453 -1.938,-7.03 0,-7.03M0,3C3.592,3 6.515,0.077 6.515,-3.515C6.515,-7.108 3.592,-10.03 0,-10.03C-3.592,-10.03 -6.515,-7.108 -6.515,-3.515C-6.515,0.077 -3.592,3 0,3" style="fill:white;fill-opacity:0.15;fill-rule:nonzero;"/>
            </g>
            <g transform="matrix(1,0,0,1,291.644,241.707)">
                <path d="M0,29.247C-5.953,35.2 -14.186,37.034 -18.208,33.39C-17.37,28.383 -13.7,26.88 -8.756,24.871C-3.829,22.868 2.145,20.434 5.492,13.29C7.087,17.664 4.989,24.257 0,29.247M-24.594,9.629C-24.216,2.592 -20.695,-3.376 -16.388,-5.121C-19.108,1.326 -17.692,6.835 -16.287,10.931C-16.641,11.25 -16.995,11.57 -17.335,11.911C-19.731,14.306 -21.551,16.997 -22.761,19.737C-24.116,16.857 -24.792,13.31 -24.594,9.629M-4.526,4.94C-4.629,4.958 -4.729,4.963 -4.832,4.982C-7.894,5.549 -10.962,6.923 -13.778,8.921C-15.216,4.307 -15.757,-0.194 -12.865,-5.559C-8.956,-4.957 -5.669,-0.77 -4.526,4.94M-20.25,29.846C-21.313,25.499 -19.184,19.416 -14.507,14.739C-10.62,10.851 -5.755,8.714 -1.728,8.714C0.286,8.714 2.087,9.252 3.456,10.368C0.796,17.742 -4.628,19.954 -9.886,22.091C-14.032,23.777 -18.275,25.517 -20.25,29.846M6.768,7.971C4.881,6.084 2.381,5.008 -0.48,4.761C-1.907,-3.471 -7.007,-9.297 -13.288,-9.629C-21.145,-10.052 -28.001,-1.497 -28.588,9.414C-28.91,15.376 -27.341,20.929 -24.3,24.862C-24.987,29.195 -24.037,33.253 -21.275,36.015C-19.116,38.174 -16.167,39.299 -12.777,39.299C-11.778,39.299 -10.741,39.201 -9.675,39.004C-5.263,38.187 -0.823,35.726 2.828,32.075C6.479,28.424 8.94,23.983 9.757,19.571C10.625,14.886 9.563,10.766 6.768,7.971" style="fill:white;fill-opacity:0.15;fill-rule:nonzero;"/>
            </g>
            <g transform="matrix(1,0,0,1,260.272,260.665)">
                <path d="M0,2.959L0.008,2.951C0.765,2.147 0.723,0.885 -0.082,0.128C-0.886,-0.629 -2.156,-0.587 -2.913,0.218C-3.67,1.022 -3.632,2.288 -2.827,3.045C-2.441,3.408 -1.949,3.588 -1.457,3.588C-0.925,3.588 -0.394,3.377 0,2.959" style="fill:white;fill-opacity:0.15;fill-rule:nonzero;"/>
            </g>
            <g transform="matrix(1,0,0,1,258.543,270.256)">
                <path d="M0,-1.971C-0.586,-1.386 -0.586,-0.435 0,0.15C0.293,0.443 0.677,0.59 1.061,0.59C1.444,0.59 1.828,0.443 2.121,0.15L2.129,0.142C2.715,-0.443 2.711,-1.389 2.125,-1.975C1.539,-2.561 0.586,-2.556 0,-1.971" style="fill:white;fill-opacity:0.15;fill-rule:nonzero;"/>
            </g>
            <g transform="matrix(1,0,0,1,296.639,239.567)">
                <path d="M0,4.199C0.512,4.199 1.024,4.004 1.414,3.613L1.422,3.605C2.203,2.824 2.199,1.562 1.418,0.781C0.637,0 -0.633,0.004 -1.414,0.785C-2.195,1.566 -2.195,2.832 -1.414,3.613C-1.024,4.004 -0.512,4.199 0,4.199" style="fill:white;fill-opacity:0.15;fill-rule:nonzero;"/>
            </g>
            <g transform="matrix(1,0,0,1,52.5381,124.857)">
                <path d="M0,22.793C0.839,17.787 4.509,16.284 9.452,14.274C14.379,12.271 20.354,9.837 23.701,2.693C25.296,7.067 23.198,13.661 18.208,18.65C12.256,24.603 4.022,26.438 0,22.793M3.701,4.143C9.533,-1.689 17.553,-3.567 21.66,-0.213C18.997,7.149 13.577,9.359 8.322,11.495C4.177,13.18 -0.067,14.92 -2.042,19.249C-3.105,14.902 -0.975,8.819 3.701,4.143M24.977,-2.625C19.417,-8.185 8.604,-6.417 0.873,1.314C-6.859,9.046 -8.626,19.859 -3.067,25.418C2.492,30.978 13.305,29.21 21.037,21.479C28.769,13.747 30.536,2.934 24.977,-2.625" style="fill:white;fill-opacity:0.15;fill-rule:nonzero;"/>
            </g>
            <g transform="matrix(1,0,0,1,451.221,97.3637)">
                <path d="M0,17.567C0.829,17.567 1.5,16.896 1.5,16.067C1.5,14.683 2.135,13.421 3.247,12.601C6.135,10.453 7.032,6.449 5.336,3.294L4.122,1.01C3.733,0.278 2.825,0 2.093,0.39C1.362,0.778 1.084,1.687 1.473,2.418L2.69,4.709C3.69,6.568 3.16,8.927 1.461,10.191C-0.393,11.558 -1.5,13.754 -1.5,16.067C-1.5,16.896 -0.829,17.567 0,17.567" style="fill:white;fill-opacity:0.15;fill-rule:nonzero;"/>
            </g>
            <g transform="matrix(1,0,0,1,453.115,119.928)">
                <path d="M0,-3.005C-0.829,-3.005 -1.5,-2.334 -1.5,-1.505L-1.5,-1.494C-1.5,-0.666 -0.829,0 0,0C0.829,0 1.5,-0.676 1.5,-1.505C1.5,-2.334 0.829,-3.005 0,-3.005" style="fill:white;fill-opacity:0.15;fill-rule:nonzero;"/>
            </g>
            <g transform="matrix(1,0,0,1,441.629,98.1601)">
                <path d="M0,20.98C0.27,21.486 0.789,21.774 1.325,21.774C1.563,21.774 1.805,21.717 2.029,21.597C2.76,21.208 3.037,20.299 2.646,19.568L1.431,17.29C0.435,15.422 0.966,13.063 2.667,11.802C5.554,9.664 6.455,5.661 4.764,2.491L3.549,0.213C3.16,-0.517 2.253,-0.794 1.52,-0.404C0.789,-0.014 0.512,0.895 0.902,1.626L2.117,3.903C3.114,5.772 2.583,8.131 0.881,9.392C-2.005,11.53 -2.907,15.533 -1.215,18.702L0,20.98Z" style="fill:white;fill-opacity:0.15;fill-rule:nonzero;"/>
            </g>
            <g transform="matrix(1,0,0,1,461.965,98.1601)">
                <path d="M0,20.98C0.27,21.486 0.789,21.774 1.325,21.774C1.563,21.774 1.805,21.717 2.029,21.597C2.76,21.208 3.037,20.299 2.646,19.568L1.431,17.29C0.435,15.422 0.966,13.063 2.667,11.802C5.554,9.664 6.456,5.661 4.764,2.491L3.549,0.213C3.158,-0.518 2.249,-0.794 1.52,-0.404C0.789,-0.014 0.512,0.895 0.902,1.626L2.118,3.903C3.114,5.772 2.583,8.131 0.881,9.392C-2.005,11.53 -2.907,15.533 -1.215,18.702L0,20.98Z" style="fill:white;fill-opacity:0.15;fill-rule:nonzero;"/>
            </g>
            <g transform="matrix(1,0,0,1,477.024,143.582)">
                <path d="M0,-4.964L-2.574,-4.964L-2.574,-9.964L0,-9.964C1.378,-9.964 2.5,-8.843 2.5,-7.464C2.5,-6.086 1.378,-4.964 0,-4.964M-19.355,9.458L-27.551,9.458C-34.598,9.458 -40.332,3.724 -40.332,-3.323L-40.332,-8.236L-31.188,-8.236C-30.36,-8.236 -29.688,-8.907 -29.688,-9.736C-29.688,-10.565 -30.36,-11.236 -31.188,-11.236L-40.332,-11.236L-40.332,-14.422L-6.574,-14.422L-6.574,-3.323C-6.574,3.724 -12.308,9.458 -19.355,9.458M0,-13.964L-2.574,-13.964L-2.574,-14.422C-2.574,-16.628 -4.368,-18.422 -6.574,-18.422L-40.332,-18.422C-42.538,-18.422 -44.332,-16.628 -44.332,-14.422L-44.332,-3.323C-44.332,5.93 -36.804,13.458 -27.551,13.458L-19.355,13.458C-10.904,13.458 -3.912,7.173 -2.759,-0.964L0,-0.964C3.584,-0.964 6.5,-3.88 6.5,-7.464C6.5,-11.048 3.584,-13.964 0,-13.964" style="fill:white;fill-opacity:0.15;fill-rule:nonzero;"/>
            </g>
            <g transform="matrix(1,0,0,1,161.297,153.787)">
                <path d="M0,-3L-0.01,-3C-0.838,-3 -1.505,-2.329 -1.505,-1.5C-1.505,-0.671 -0.829,0 0,0C0.829,0 1.5,-0.671 1.5,-1.5C1.5,-2.329 0.829,-3 0,-3" style="fill:white;fill-opacity:0.15;fill-rule:nonzero;"/>
            </g>
            <g transform="matrix(1,0,0,1,228.19,142.545)">
                <path d="M0,-5.007C0,-3.652 -1.103,-2.549 -2.458,-2.549C-3.117,-2.549 -3.734,-2.804 -4.198,-3.268C-4.661,-3.731 -4.916,-4.348 -4.916,-5.007L-4.916,-14.023C-4.916,-21.27 -10.812,-27.166 -18.059,-27.166C-21.516,-27.166 -24.754,-25.841 -27.207,-23.448L-27.207,-29.579C-24.44,-31.214 -21.301,-32.081 -18.059,-32.081C-13.243,-32.081 -8.706,-30.203 -5.287,-26.795C-1.878,-23.384 0,-18.849 0,-14.023L0,-5.007ZM-21.279,25.41C-22.595,27.233 -24.639,28.278 -26.887,28.278L-80.56,28.278C-82.808,28.278 -84.851,27.233 -86.167,25.41C-87.482,23.587 -87.831,21.318 -87.123,19.184L-84.488,11.247L-72.485,11.247C-71.657,11.247 -70.985,10.576 -70.985,9.747C-70.985,8.919 -71.657,8.247 -72.485,8.247L-83.492,8.247L-76.796,-11.926L-30.649,-11.926L-23.954,8.247L-61.342,8.247C-62.17,8.247 -62.842,8.919 -62.842,9.747C-62.842,10.576 -62.17,11.247 -61.342,11.247L-22.958,11.247L-20.323,19.184C-19.615,21.318 -19.963,23.587 -21.279,25.41M-31.207,-15.926L-76.24,-15.926L-76.24,-22.327L-31.207,-22.327L-31.207,-15.926ZM-82.675,-33.154C-82.613,-33.285 -82.515,-33.285 -82.468,-33.285L-33.664,-33.285C-32.309,-33.285 -31.207,-32.182 -31.207,-30.827L-31.207,-26.327L-77.288,-26.327L-82.646,-32.912C-82.675,-32.948 -82.737,-33.024 -82.675,-33.154M-2.461,-29.625C-6.637,-33.788 -12.177,-36.081 -18.059,-36.081C-21.511,-36.081 -24.866,-35.272 -27.911,-33.745C-28.979,-35.842 -31.154,-37.285 -33.664,-37.285L-82.468,-37.285C-84.116,-37.285 -85.58,-36.361 -86.287,-34.872C-86.995,-33.384 -86.788,-31.665 -85.748,-30.387L-80.239,-23.616L-80.239,-14.249L-90.918,17.925C-92.037,21.292 -91.487,24.874 -89.41,27.751C-87.334,30.628 -84.108,32.278 -80.56,32.278L-26.887,32.278C-23.338,32.278 -20.112,30.628 -18.036,27.751C-15.959,24.873 -15.409,21.292 -16.527,17.925L-27.194,-14.211C-27.146,-16.581 -26.207,-18.804 -24.52,-20.491C-22.804,-22.216 -20.51,-23.166 -18.059,-23.166C-13.017,-23.166 -8.916,-19.065 -8.916,-14.023L-8.916,-5.007C-8.916,-3.279 -8.244,-1.657 -7.025,-0.439C-5.807,0.78 -4.185,1.451 -2.458,1.451C1.103,1.451 4,-1.446 4,-5.007L4,-14.023C4,-19.917 1.706,-25.457 -2.461,-29.625" style="fill:white;fill-opacity:0.15;fill-rule:nonzero;"/>
            </g>
            <g transform="matrix(1,0,0,1,436.142,56.6992)">
                <path d="M0,-3L-0.111,-3C-0.94,-3 -1.611,-2.329 -1.611,-1.5C-1.611,-0.671 -0.94,0 -0.111,0L0,0C0.829,0 1.5,-0.671 1.5,-1.5C1.5,-2.329 0.829,-3 0,-3" style="fill:white;fill-opacity:0.15;fill-rule:nonzero;"/>
            </g>
            <g transform="matrix(1,0,0,1,445.585,23.8322)">
                <path d="M0,29.867L-3.871,29.867C-4.699,29.867 -5.371,30.538 -5.371,31.367C-5.371,32.196 -4.699,32.867 -3.871,32.867L-0.371,32.867C-0.601,33.504 -0.917,34.116 -1.337,34.678C-2.656,36.44 -4.674,37.45 -6.874,37.45L-27.62,37.45C-29.82,37.45 -31.838,36.44 -33.157,34.678C-33.578,34.116 -33.894,33.504 -34.124,32.867L-15.015,32.867C-14.186,32.867 -13.515,32.196 -13.515,31.367C-13.515,30.538 -14.186,29.867 -15.015,29.867L-34.495,29.867C-34.452,29.438 -34.379,29.009 -34.254,28.584L-26.747,3.057L-23.84,3.057C-23.012,3.057 -22.34,2.386 -22.34,1.557C-22.34,0.729 -23.012,0.057 -23.84,0.057L-26.839,0.057L-29.769,-7.269C-29.78,-7.297 -29.814,-7.382 -29.746,-7.482C-29.678,-7.583 -29.586,-7.583 -29.557,-7.583L-4.937,-7.583C-4.908,-7.583 -4.816,-7.583 -4.748,-7.482C-4.68,-7.382 -4.714,-7.297 -4.725,-7.269L-7.656,0.057L-18.269,0.057C-19.097,0.057 -19.769,0.729 -19.769,1.557C-19.769,2.386 -19.097,3.057 -18.269,3.057L-7.748,3.057L-0.24,28.584C-0.115,29.009 -0.043,29.438 0,29.867M45.532,-7.032C45.269,-8.106 44.184,-8.76 43.113,-8.496L-3.597,2.993L-3.989,1.66L-1.011,-5.783C-0.489,-7.088 -0.648,-8.562 -1.436,-9.725C-2.224,-10.888 -3.533,-11.583 -4.937,-11.583L-29.557,-11.583C-30.961,-11.583 -32.271,-10.888 -33.058,-9.725C-33.846,-8.562 -34.005,-7.088 -33.483,-5.783L-30.505,1.66L-38.092,27.455C-39.072,30.787 -38.44,34.293 -36.359,37.075C-34.278,39.855 -31.093,41.45 -27.62,41.45L-6.874,41.45C-3.401,41.45 -0.216,39.855 1.865,37.075C3.946,34.293 4.578,30.787 3.598,27.455L-2.467,6.835L44.068,-4.612C45.141,-4.876 45.796,-5.96 45.532,-7.032" style="fill:white;fill-opacity:0.15;fill-rule:nonzero;"/>
            </g>
            <g transform="matrix(1,0,0,1,326.68,157.544)">
                <path d="M0,3.687C-1.017,3.687 -1.843,2.86 -1.843,1.844C-1.843,0.827 -1.017,0 0,0C1.017,0 1.843,0.827 1.843,1.844C1.843,2.86 1.017,3.687 0,3.687M0,-3C-2.67,-3 -4.843,-0.827 -4.843,1.844C-4.843,4.514 -2.67,6.687 0,6.687C2.67,6.687 4.843,4.514 4.843,1.844C4.843,-0.827 2.67,-3 0,-3" style="fill:white;fill-opacity:0.15;fill-rule:nonzero;"/>
            </g>
            <g transform="matrix(1,0,0,1,358.849,128.399)">
                <path d="M0,9.597C-0.016,9.628 -0.032,9.659 -0.047,9.692C-0.449,10.566 -1.497,10.976 -2.382,10.601C-3.052,10.32 -3.485,9.666 -3.485,8.935C-3.485,8.701 -3.442,8.476 -3.358,8.267L5.18,-7.59C5.204,-7.634 5.226,-7.679 5.247,-7.726C6.046,-9.525 5.882,-11.586 4.808,-13.238C3.735,-14.89 1.92,-15.876 -0.047,-15.876L-6.271,-15.876L-5.11,-21.677C-5.04,-22.029 -5.026,-22.381 -5.044,-22.73L7.331,-22.73C7.466,-22.73 7.584,-22.661 7.652,-22.54L12.366,-14.227C12.425,-14.122 12.432,-14.003 12.425,-13.984L0,9.597ZM-8.163,50.311C-8.631,50.921 -9.342,51.271 -10.111,51.271L-17.95,51.271L-18.55,46.407C-18.651,45.585 -19.397,45.001 -20.223,45.102C-21.045,45.203 -21.629,45.952 -21.528,46.774L-20.973,51.271L-43.363,51.271L-39.713,21.84L-24.624,21.84L-22.219,41.203C-22.124,41.963 -21.478,42.518 -20.732,42.518C-20.67,42.518 -20.608,42.515 -20.545,42.507C-19.723,42.405 -19.139,41.656 -19.241,40.833L-21.601,21.84L-14.761,21.84L-7.737,48.18C-7.539,48.924 -7.694,49.701 -8.163,50.311M-56.175,50.311C-56.644,49.701 -56.799,48.924 -56.601,48.18L-49.577,21.84L-42.737,21.84L-46.387,51.271L-54.227,51.271C-54.996,51.271 -55.707,50.921 -56.175,50.311M-64.444,-22.379C-64.467,-22.413 -64.521,-22.492 -64.457,-22.614C-64.393,-22.736 -64.296,-22.736 -64.255,-22.736L-59.293,-22.736C-59.312,-22.385 -59.298,-22.031 -59.228,-21.677L-57.237,-11.726L-64.444,-22.379ZM-34.675,-30.525C-34.631,-30.542 -34.585,-30.554 -34.541,-30.57C-34.532,-30.573 -34.522,-30.573 -34.514,-30.575C-34.499,-30.58 -34.487,-30.588 -34.472,-30.593C-32.911,-31.146 -31.211,-31.128 -29.663,-30.525L-29.407,-30.425C-29.366,-30.409 -29.328,-30.387 -29.285,-30.374C-29.28,-30.372 -29.274,-30.373 -29.269,-30.371L-19.918,-26.736L-44.419,-26.736L-34.675,-30.525ZM-27.905,-41.674L-30.024,-34.777C-31.254,-35.025 -32.512,-35.051 -33.75,-34.87L-35.858,-41.674L-27.905,-41.674ZM-55.258,-22.652C-55.212,-22.707 -55.153,-22.736 -55.081,-22.736L-46.388,-22.736L-45.497,-15.545C-45.402,-14.786 -44.756,-14.23 -44.01,-14.23C-43.948,-14.23 -43.886,-14.233 -43.823,-14.241C-43.001,-14.343 -42.417,-15.092 -42.519,-15.914L-43.365,-22.736L-20.973,-22.736L-24.623,6.696L-39.715,6.696L-41.82,-10.278C-41.922,-11.101 -42.671,-11.686 -43.493,-11.583C-44.315,-11.481 -44.899,-10.732 -44.797,-9.909L-42.738,6.696L-49.474,6.696L-51.365,-2.757C-51.366,-2.763 -51.367,-2.769 -51.368,-2.775L-55.306,-22.462C-55.319,-22.532 -55.304,-22.596 -55.258,-22.652M-49.113,10.696L-15.224,10.696L-15.224,17.84L-49.113,17.84L-49.113,10.696ZM-9.08,-22.652C-9.034,-22.596 -9.019,-22.532 -9.032,-22.462L-14.864,6.696L-21.6,6.696L-17.95,-22.736L-9.305,-22.736C-9.287,-22.735 -9.27,-22.73 -9.251,-22.73L-9.246,-22.73C-9.18,-22.727 -9.123,-22.704 -9.08,-22.652M15.846,-16.199L11.132,-24.513C10.356,-25.881 8.9,-26.73 7.331,-26.73L-8.867,-26.73L-26.237,-33.485L-23.73,-41.645C-23.441,-42.586 -23.617,-43.62 -24.202,-44.411C-24.787,-45.202 -25.723,-45.674 -26.707,-45.674L-37.059,-45.674C-38.044,-45.674 -38.981,-45.201 -39.566,-44.408C-40.15,-43.615 -40.326,-42.58 -40.034,-41.638L-37.572,-33.691L-55.457,-26.736L-64.255,-26.736C-65.823,-26.736 -67.254,-25.875 -67.99,-24.49C-68.726,-23.104 -68.636,-21.437 -67.758,-20.137L-55.21,-1.591L-53.113,8.893L-53.113,19.577L-60.466,47.15C-60.987,49.104 -60.579,51.144 -59.347,52.748C-58.115,54.351 -56.249,55.271 -54.227,55.271L-10.111,55.271C-8.089,55.271 -6.223,54.351 -4.991,52.748C-3.759,51.144 -3.351,49.104 -3.872,47.15L-11.225,19.577L-11.225,8.893L-7.071,-11.876L-0.047,-11.876C0.829,-11.876 1.294,-11.304 1.454,-11.058C1.61,-10.818 1.932,-10.184 1.616,-9.407L-6.922,6.45C-6.946,6.494 -6.968,6.539 -6.989,6.585C-7.318,7.324 -7.485,8.115 -7.485,8.935C-7.485,11.282 -6.089,13.383 -3.931,14.289C-3.19,14.6 -2.423,14.748 -1.67,14.748C0.506,14.748 2.571,13.514 3.561,11.419L16.006,-12.204C16.602,-13.477 16.542,-14.971 15.846,-16.199" style="fill:white;fill-opacity:0.15;fill-rule:nonzero;"/>
            </g>
            <g transform="matrix(1,0,0,1,0,108.57)">
                <path d="M194.741,252.042L161.756,252.042L161.756,239.389L194.741,239.389L194.741,252.042ZM197.741,252.396L197.741,239.034C197.741,237.576 196.555,236.388 195.096,236.388L161.402,236.388C159.943,236.388 158.756,237.576 158.756,239.034L158.756,252.396C158.756,253.855 159.943,255.042 161.402,255.042L195.096,255.042C196.555,255.042 197.741,253.855 197.741,252.396" style="fill:white;fill-opacity:0.15;fill-rule:nonzero;"/>
            </g>
            <g transform="matrix(1,0,0,1,178.269,352.285)">
                <path d="M0,4C1.104,4 2,3.104 2,2C2,0.896 1.104,0 0,0L-0.01,0C-1.115,0 -2.005,0.896 -2.005,2C-2.005,3.104 -1.104,4 0,4" style="fill:white;fill-opacity:0.15;fill-rule:nonzero;"/>
            </g>
            <g transform="matrix(1,0,0,1,176.206,325.794)">
                <path d="M0,-3L-11.56,-3C-12.388,-3 -13.06,-2.329 -13.06,-1.5C-13.06,-0.671 -12.388,0 -11.56,0L0,0C0.829,0 1.5,-0.671 1.5,-1.5C1.5,-2.329 0.829,-3 0,-3" style="fill:white;fill-opacity:0.15;fill-rule:nonzero;"/>
            </g>
            <g transform="matrix(1,0,0,1,182.239,325.79)">
                <path d="M0,-3L-0.01,-3C-0.838,-3 -1.505,-2.329 -1.505,-1.5C-1.505,-0.671 -0.829,0 0,0C0.829,0 1.5,-0.671 1.5,-1.5C1.5,-2.329 0.829,-3 0,-3" style="fill:white;fill-opacity:0.15;fill-rule:nonzero;"/>
            </g>
            <g transform="matrix(1,0,0,1,178.249,270.756)">
                <path d="M28.49,105.256L-28.49,105.256C-28.04,103.195 -26.822,101.611 -24.708,100.295L24.708,100.295C26.821,101.611 28.039,103.195 28.49,105.256ZM-23.26,70.763L23.259,70.763L23.259,96.295L-23.26,96.295L-23.26,70.763ZM-19.772,49.358L19.768,49.358C19.182,57.627 14.945,63.89 7.929,66.763L-7.942,66.763C-14.953,63.878 -19.186,57.614 -19.772,49.358M-23.26,43.595C-23.26,43.009 -22.783,42.532 -22.197,42.532L22.197,42.532C22.783,42.532 23.259,43.009 23.259,43.595L23.259,44.295C23.259,44.881 22.783,45.358 22.197,45.358L21.898,45.358C21.88,45.357 21.863,45.352 21.845,45.352C21.827,45.352 21.81,45.357 21.792,45.358L-21.796,45.358C-21.814,45.357 -21.832,45.352 -21.85,45.352C-21.868,45.352 -21.885,45.357 -21.903,45.358L-22.197,45.358C-22.783,45.358 -23.26,44.881 -23.26,44.295L-23.26,43.595ZM22.036,15.089L22.036,6.774C22.036,5.292 23.241,4.086 24.723,4.086L25.795,4.086C27.277,4.086 28.483,5.292 28.483,6.774L28.483,15.089C28.483,16.571 27.277,17.777 25.795,17.777L24.723,17.777C23.241,17.777 22.036,16.571 22.036,15.089M27.259,97.207L27.259,68.763C27.259,67.659 26.364,66.763 25.259,66.763L15.556,66.763C20.457,62.597 23.393,56.403 23.791,49.076C25.798,48.403 27.259,46.527 27.259,44.295L27.259,43.595C27.259,40.803 24.988,38.532 22.197,38.532L2,38.532L2,29.717L24.133,29.717C25.857,29.717 27.259,28.315 27.259,26.591L27.259,21.61C30.244,20.941 32.483,18.274 32.483,15.089L32.483,6.774C32.483,3.589 30.244,0.923 27.259,0.253L27.259,-2C27.259,-3.104 26.364,-4 25.259,-4C24.155,-4 23.259,-3.104 23.259,-2L23.259,0.253C20.274,0.923 18.036,3.589 18.036,6.774L18.036,15.089C18.036,18.274 20.274,20.941 23.259,21.61L23.259,25.717L1.126,25.717C-0.598,25.717 -2,27.119 -2,28.843L-2,38.532L-22.197,38.532C-24.989,38.532 -27.26,40.803 -27.26,43.595L-27.26,44.295C-27.26,46.525 -25.801,48.401 -23.795,49.074C-23.397,56.397 -20.46,62.592 -15.558,66.763L-25.26,66.763C-26.364,66.763 -27.26,67.659 -27.26,68.763L-27.26,97.207C-30.897,99.641 -32.692,102.932 -32.692,107.256C-32.692,108.36 -31.797,109.256 -30.692,109.256L30.692,109.256C31.796,109.256 32.692,108.36 32.692,107.256C32.692,102.932 30.896,99.641 27.259,97.207" style="fill:white;fill-opacity:0.15;fill-rule:nonzero;"/>
            </g>
            <g transform="matrix(1,0,0,1,456.211,448.221)">
                <path d="M0,-35.473C0,-34.922 -0.449,-34.473 -1,-34.473L-39.575,-34.473C-40.126,-34.473 -40.575,-34.922 -40.575,-35.473L-40.575,-36.388C-40.575,-38.042 -39.229,-39.388 -37.575,-39.388L-3,-39.388C-1.346,-39.388 0,-38.042 0,-36.388L0,-35.473ZM-10.949,10.102L-29.626,10.102C-30.894,10.102 -31.945,9.151 -32.071,7.889L-32.726,1.346L-7.85,1.346L-8.504,7.889C-8.63,9.151 -9.681,10.102 -10.949,10.102M-7.55,-1.654L-33.026,-1.654L-34.731,-18.713L-5.844,-18.713L-7.55,-1.654ZM-5.544,-21.713L-35.032,-21.713L-35.908,-30.473L-4.668,-30.473L-5.544,-21.713ZM-30.317,-46.575L-10.258,-46.575C-8.107,-46.575 -6.259,-45.257 -5.475,-43.388L-35.101,-43.388C-34.316,-45.257 -32.468,-46.575 -30.317,-46.575M-2.32,-43.353C-3.204,-46.919 -6.423,-49.575 -10.258,-49.575L-30.317,-49.575C-34.152,-49.575 -37.371,-46.919 -38.255,-43.353C-41.797,-43.011 -44.575,-40.018 -44.575,-36.388L-44.575,-35.473C-44.575,-32.838 -42.52,-30.695 -39.932,-30.509L-36.052,8.287C-35.72,11.602 -32.958,14.102 -29.626,14.102L-10.949,14.102C-7.618,14.102 -4.855,11.602 -4.523,8.287L-0.644,-30.509C1.944,-30.695 4,-32.838 4,-35.473L4,-36.388C4,-40.018 1.222,-43.011 -2.32,-43.353" style="fill:white;fill-opacity:0.15;fill-rule:nonzero;"/>
            </g>
            <g transform="matrix(1,0,0,1,435.924,441.841)">
                <path d="M0,-7.03C1.938,-7.03 3.515,-5.453 3.515,-3.515C3.515,-1.577 1.938,0 0,0C-1.938,0 -3.515,-1.577 -3.515,-3.515C-3.515,-5.453 -1.938,-7.03 0,-7.03M0,3C3.592,3 6.515,0.077 6.515,-3.515C6.515,-7.108 3.592,-10.03 0,-10.03C-3.592,-10.03 -6.515,-7.108 -6.515,-3.515C-6.515,0.077 -3.592,3 0,3" style="fill:white;fill-opacity:0.15;fill-rule:nonzero;"/>
            </g>
            <g transform="matrix(1,0,0,1,527.277,435.457)">
                <path d="M0,-2.668C3.347,4.476 9.321,6.91 14.249,8.913C19.192,10.923 22.862,12.426 23.701,17.432C19.679,21.077 11.445,19.243 5.492,13.29C0.503,8.3 -1.595,1.706 0,-2.668M28.253,3.779C27.043,1.04 25.223,-1.651 22.828,-4.046C22.487,-4.387 22.133,-4.707 21.779,-5.027C23.184,-9.123 24.6,-14.632 21.881,-21.078C26.187,-19.334 29.708,-13.366 30.086,-6.328C30.285,-2.647 29.608,0.9 28.253,3.779M18.357,-21.516C21.249,-16.151 20.708,-11.65 19.271,-7.037C16.455,-9.035 13.386,-10.408 10.324,-10.975C10.221,-10.995 10.121,-11 10.018,-11.017C11.162,-16.728 14.448,-20.914 18.357,-21.516M15.378,6.134C10.12,3.996 4.696,1.785 2.037,-5.589C3.405,-6.706 5.207,-7.243 7.22,-7.243C11.248,-7.243 16.112,-5.106 20,-1.218C24.676,3.458 26.806,9.541 25.743,13.889C23.768,9.56 19.524,7.819 15.378,6.134M-4.265,3.614C-3.448,8.026 -0.987,12.467 2.664,16.118C6.315,19.769 10.755,22.229 15.167,23.046C16.233,23.244 17.271,23.341 18.269,23.341C21.66,23.341 24.608,22.217 26.768,20.058C29.53,17.296 30.479,13.237 29.792,8.904C32.833,4.971 34.402,-0.582 34.081,-6.543C33.494,-17.455 26.637,-26.009 18.78,-25.587C12.5,-25.254 7.399,-19.428 5.973,-11.196C3.112,-10.95 0.612,-9.874 -1.276,-7.986C-4.071,-5.191 -5.132,-1.072 -4.265,3.614" style="fill:white;fill-opacity:0.15;fill-rule:nonzero;"/>
            </g>
            <g transform="matrix(1,0,0,1,564.141,438.457)">
                <path d="M0,2.959L-0.008,2.951C-0.765,2.147 -0.723,0.885 0.082,0.128C0.886,-0.629 2.156,-0.587 2.913,0.218C3.67,1.022 3.632,2.288 2.827,3.045C2.441,3.408 1.949,3.588 1.457,3.588C0.925,3.588 0.394,3.377 0,2.959" style="fill:white;fill-opacity:0.15;fill-rule:nonzero;"/>
            </g>
            <g transform="matrix(1,0,0,1,565.87,448.048)">
                <path d="M0,-1.971C0.586,-1.386 0.586,-0.435 0,0.15C-0.293,0.443 -0.677,0.59 -1.061,0.59C-1.444,0.59 -1.828,0.443 -2.121,0.15L-2.129,0.142C-2.715,-0.443 -2.711,-1.389 -2.125,-1.975C-1.539,-2.561 -0.586,-2.556 0,-1.971" style="fill:white;fill-opacity:0.15;fill-rule:nonzero;"/>
            </g>
            <g transform="matrix(1,0,0,1,527.773,417.359)">
                <path d="M0,4.199C-0.512,4.199 -1.024,4.004 -1.414,3.613L-1.422,3.605C-2.203,2.824 -2.199,1.562 -1.418,0.781C-0.637,0 0.633,0.004 1.414,0.785C2.195,1.566 2.195,2.832 1.414,3.613C1.024,4.004 0.512,4.199 0,4.199" style="fill:white;fill-opacity:0.15;fill-rule:nonzero;"/>
            </g>
            <g transform="matrix(1,0,0,1,255.591,467.558)">
                <path d="M0,21.91C-5.006,21.071 -6.509,17.401 -8.519,12.458C-10.522,7.53 -12.956,1.556 -20.1,-1.791C-15.726,-3.386 -9.132,-1.288 -4.143,3.702C1.81,9.654 3.645,17.888 0,21.91M-18.65,18.209C-24.482,12.376 -26.36,4.356 -23.005,0.25C-15.644,2.912 -13.434,8.333 -11.298,13.587C-9.613,17.733 -7.872,21.977 -3.543,23.952C-7.891,25.015 -13.974,22.885 -18.65,18.209M-25.418,-3.067C-30.978,2.492 -29.21,13.305 -21.479,21.037C-13.747,28.769 -2.934,30.536 2.625,24.977C8.185,19.418 6.418,8.605 -1.314,0.873C-9.046,-6.859 -19.859,-8.626 -25.418,-3.067" style="fill:white;fill-opacity:0.15;fill-rule:nonzero;"/>
            </g>
            <g transform="matrix(1,0,0,1,155.909,487.741)">
                <path d="M0,17.567C0.829,17.567 1.5,16.896 1.5,16.067C1.5,14.683 2.135,13.421 3.247,12.601C6.135,10.453 7.032,6.449 5.336,3.294L4.122,1.01C3.733,0.278 2.825,0 2.093,0.39C1.362,0.778 1.084,1.687 1.473,2.418L2.69,4.709C3.69,6.568 3.16,8.927 1.461,10.191C-0.393,11.558 -1.5,13.754 -1.5,16.067C-1.5,16.896 -0.829,17.567 0,17.567" style="fill:white;fill-opacity:0.15;fill-rule:nonzero;"/>
            </g>
            <g transform="matrix(1,0,0,1,157.804,510.305)">
                <path d="M0,-3.005C-0.829,-3.005 -1.5,-2.334 -1.5,-1.505L-1.5,-1.494C-1.5,-0.666 -0.829,0 0,0C0.829,0 1.5,-0.676 1.5,-1.505C1.5,-2.334 0.829,-3.005 0,-3.005" style="fill:white;fill-opacity:0.15;fill-rule:nonzero;"/>
            </g>
            <g transform="matrix(1,0,0,1,146.318,488.537)">
                <path d="M0,20.98C0.27,21.486 0.789,21.774 1.325,21.774C1.563,21.774 1.805,21.717 2.029,21.597C2.76,21.208 3.037,20.299 2.646,19.568L1.431,17.29C0.435,15.422 0.966,13.063 2.667,11.802C5.554,9.664 6.455,5.661 4.764,2.491L3.549,0.213C3.16,-0.517 2.253,-0.794 1.52,-0.404C0.789,-0.014 0.512,0.895 0.902,1.626L2.117,3.903C3.114,5.772 2.583,8.131 0.881,9.392C-2.005,11.53 -2.907,15.533 -1.215,18.702L0,20.98Z" style="fill:white;fill-opacity:0.15;fill-rule:nonzero;"/>
            </g>
            <g transform="matrix(1,0,0,1,166.653,488.537)">
                <path d="M0,20.98C0.27,21.486 0.789,21.774 1.325,21.774C1.563,21.774 1.805,21.717 2.029,21.597C2.76,21.208 3.037,20.299 2.646,19.568L1.431,17.29C0.435,15.422 0.966,13.063 2.667,11.802C5.554,9.664 6.456,5.661 4.764,2.491L3.549,0.213C3.158,-0.518 2.249,-0.794 1.52,-0.404C0.789,-0.014 0.512,0.895 0.902,1.626L2.118,3.903C3.114,5.772 2.583,8.131 0.881,9.392C-2.005,11.53 -2.907,15.533 -1.215,18.702L0,20.98Z" style="fill:white;fill-opacity:0.15;fill-rule:nonzero;"/>
            </g>
            <g transform="matrix(1,0,0,1,181.713,533.959)">
                <path d="M0,-4.964L-2.574,-4.964L-2.574,-9.964L0,-9.964C1.378,-9.964 2.5,-8.843 2.5,-7.464C2.5,-6.086 1.378,-4.964 0,-4.964M-19.355,9.458L-27.551,9.458C-34.598,9.458 -40.332,3.724 -40.332,-3.323L-40.332,-8.236L-31.188,-8.236C-30.36,-8.236 -29.688,-8.907 -29.688,-9.736C-29.688,-10.565 -30.36,-11.236 -31.188,-11.236L-40.332,-11.236L-40.332,-14.422L-6.574,-14.422L-6.574,-3.323C-6.574,3.724 -12.308,9.458 -19.355,9.458M0,-13.964L-2.574,-13.964L-2.574,-14.422C-2.574,-16.628 -4.368,-18.422 -6.574,-18.422L-40.332,-18.422C-42.538,-18.422 -44.332,-16.628 -44.332,-14.422L-44.332,-3.323C-44.332,5.93 -36.804,13.458 -27.551,13.458L-19.355,13.458C-10.904,13.458 -3.912,7.173 -2.759,-0.964L0,-0.964C3.584,-0.964 6.5,-3.88 6.5,-7.464C6.5,-11.048 3.584,-13.964 0,-13.964" style="fill:white;fill-opacity:0.15;fill-rule:nonzero;"/>
            </g>
            <g transform="matrix(1,0,0,1,499.567,550.741)">
                <path d="M0,-3L-0.01,-3C-0.838,-3 -1.505,-2.329 -1.505,-1.5C-1.505,-0.671 -0.829,0 0,0C0.829,0 1.5,-0.671 1.5,-1.5C1.5,-2.329 0.829,-3 0,-3" style="fill:white;fill-opacity:0.15;fill-rule:nonzero;"/>
            </g>
            <g transform="matrix(1,0,0,1,566.46,539.499)">
                <path d="M0,-5.007C0,-3.652 -1.103,-2.549 -2.458,-2.549C-3.117,-2.549 -3.734,-2.804 -4.198,-3.268C-4.661,-3.731 -4.916,-4.348 -4.916,-5.007L-4.916,-14.023C-4.916,-21.27 -10.812,-27.166 -18.059,-27.166C-21.516,-27.166 -24.754,-25.841 -27.207,-23.447L-27.207,-29.579C-24.44,-31.214 -21.301,-32.081 -18.059,-32.081C-13.243,-32.081 -8.706,-30.203 -5.287,-26.795C-1.878,-23.384 0,-18.849 0,-14.023L0,-5.007ZM-21.279,25.41C-22.595,27.233 -24.639,28.278 -26.887,28.278L-80.56,28.278C-82.808,28.278 -84.851,27.233 -86.167,25.41C-87.482,23.587 -87.831,21.318 -87.123,19.184L-84.488,11.247L-72.485,11.247C-71.657,11.247 -70.985,10.576 -70.985,9.747C-70.985,8.919 -71.657,8.247 -72.485,8.247L-83.492,8.247L-76.796,-11.926L-30.65,-11.926L-23.954,8.247L-61.342,8.247C-62.17,8.247 -62.842,8.919 -62.842,9.747C-62.842,10.576 -62.17,11.247 -61.342,11.247L-22.958,11.247L-20.323,19.184C-19.615,21.318 -19.963,23.587 -21.279,25.41M-31.207,-15.926L-76.24,-15.926L-76.24,-22.327L-31.207,-22.327L-31.207,-15.926ZM-82.675,-33.154C-82.613,-33.285 -82.515,-33.285 -82.468,-33.285L-33.664,-33.285C-32.309,-33.285 -31.207,-32.182 -31.207,-30.827L-31.207,-26.327L-77.288,-26.327L-82.646,-32.912C-82.675,-32.948 -82.737,-33.024 -82.675,-33.154M-2.461,-29.625C-6.637,-33.788 -12.177,-36.081 -18.059,-36.081C-21.511,-36.081 -24.866,-35.272 -27.911,-33.744C-28.979,-35.841 -31.154,-37.285 -33.664,-37.285L-82.468,-37.285C-84.116,-37.285 -85.58,-36.361 -86.287,-34.872C-86.995,-33.384 -86.788,-31.665 -85.748,-30.387L-80.239,-23.616L-80.239,-14.248L-90.918,17.925C-92.037,21.292 -91.487,24.874 -89.41,27.751C-87.334,30.628 -84.108,32.278 -80.56,32.278L-26.887,32.278C-23.338,32.278 -20.112,30.628 -18.036,27.751C-15.959,24.873 -15.409,21.292 -16.527,17.925L-27.194,-14.211C-27.146,-16.581 -26.207,-18.804 -24.52,-20.491C-22.804,-22.216 -20.51,-23.166 -18.059,-23.166C-13.017,-23.166 -8.916,-19.065 -8.916,-14.023L-8.916,-5.007C-8.916,-3.279 -8.244,-1.657 -7.025,-0.439C-5.807,0.78 -4.185,1.451 -2.458,1.451C1.103,1.451 4,-1.446 4,-5.007L4,-14.023C4,-19.917 1.706,-25.457 -2.461,-29.625" style="fill:white;fill-opacity:0.15;fill-rule:nonzero;"/>
            </g>
            <g transform="matrix(1,0,0,1,533.204,348.656)">
                <path d="M0,-3L-19.058,-3C-19.887,-3 -20.558,-2.329 -20.558,-1.5C-20.558,-0.671 -19.887,0 -19.058,0L0,0C0.829,0 1.5,-0.671 1.5,-1.5C1.5,-2.329 0.829,-3 0,-3" style="fill:white;fill-opacity:0.15;fill-rule:nonzero;"/>
            </g>
            <g transform="matrix(1,0,0,1,536.835,308.086)">
                <path d="M0,-1.174L6.996,12.135C7.062,12.262 7.059,12.388 6.985,12.51C6.911,12.633 6.801,12.695 6.658,12.695L-32.979,12.695C-33.122,12.695 -33.231,12.633 -33.306,12.51C-33.379,12.388 -33.383,12.262 -33.316,12.135L-26.321,-1.174C-26.238,-1.331 -26.17,-1.493 -26.104,-1.655L-0.216,-1.655C-0.15,-1.493 -0.083,-1.331 0,-1.174M11.252,42.053C9.832,44.185 7.548,45.408 4.986,45.408L-31.307,45.408C-33.869,45.408 -36.153,44.185 -37.573,42.053C-38.993,39.92 -39.241,37.341 -38.254,34.976L-30.616,16.695L4.295,16.695L11.933,34.976C12.92,37.341 12.672,39.92 11.252,42.053M-33.316,-19.445C-33.383,-19.571 -33.379,-19.698 -33.306,-19.82C-33.231,-19.943 -33.122,-20.005 -32.979,-20.005L6.658,-20.005C6.801,-20.005 6.911,-19.943 6.985,-19.82C7.059,-19.698 7.062,-19.571 6.996,-19.445L0,-6.136C-0.082,-5.98 -0.15,-5.818 -0.216,-5.655L-26.104,-5.655C-26.17,-5.818 -26.238,-5.979 -26.321,-6.136L-33.316,-19.445ZM-35.955,-33.044C-35.515,-33.832 -34.712,-34.303 -33.809,-34.303L7.486,-34.303C8.39,-34.303 9.192,-33.833 9.632,-33.044C10.073,-32.255 10.052,-31.325 9.579,-30.556L5.539,-24.005L-31.859,-24.005L-35.9,-30.556C-36.375,-31.324 -36.395,-32.255 -35.955,-33.044M-29.347,-41.99C-29.414,-42.137 -29.375,-42.26 -29.332,-42.337C-29.288,-42.415 -29.202,-42.51 -29.042,-42.528L6.039,-46.426C6.19,-46.44 6.312,-46.387 6.398,-46.259C6.484,-46.132 6.49,-45.999 6.417,-45.864L2.311,-38.303L-27.669,-38.303L-29.347,-41.99ZM18.31,6.1L12.693,-4.586C12.347,-5.243 11.666,-5.655 10.922,-5.655L4.267,-5.655L10.537,-17.584C11.257,-18.955 11.209,-20.564 10.408,-21.889C10.174,-22.277 9.883,-22.612 9.558,-22.902L12.983,-28.457C14.229,-30.477 14.282,-32.921 13.125,-34.994C11.968,-37.066 9.86,-38.303 7.486,-38.303L6.863,-38.303L9.932,-43.955C10.713,-45.394 10.631,-47.132 9.718,-48.491C8.804,-49.85 7.224,-50.582 5.597,-50.402L-29.483,-46.504C-30.875,-46.349 -32.118,-45.53 -32.81,-44.313C-33.501,-43.095 -33.568,-41.608 -32.988,-40.333L-32.064,-38.303L-33.809,-38.303C-36.183,-38.303 -38.291,-37.066 -39.448,-34.993C-40.604,-32.92 -40.551,-30.476 -39.305,-28.455L-35.879,-22.902C-36.205,-22.612 -36.495,-22.277 -36.729,-21.889C-37.53,-20.564 -37.578,-18.954 -36.857,-17.584L-29.861,-4.274C-29.766,-4.092 -29.719,-3.893 -29.713,-3.694C-29.714,-3.681 -29.717,-3.668 -29.717,-3.655C-29.717,-3.642 -29.714,-3.63 -29.713,-3.616C-29.719,-3.417 -29.766,-3.217 -29.862,-3.035L-36.857,10.274C-37.578,11.644 -37.53,13.253 -36.729,14.578C-36.26,15.356 -35.579,15.944 -34.786,16.302L-41.944,33.434C-43.435,37.002 -43.045,41.052 -40.902,44.27C-38.759,47.487 -35.172,49.408 -31.307,49.408L4.986,49.408C8.852,49.408 12.438,47.487 14.582,44.27C16.724,41.052 17.114,37.002 15.624,33.434L8.465,16.301C9.258,15.944 9.938,15.356 10.409,14.578C11.209,13.253 11.257,11.644 10.537,10.274L4.267,-1.655L9.714,-1.655L14.769,7.962C15.127,8.642 15.822,9.032 16.541,9.032C16.855,9.032 17.173,8.957 17.47,8.802C18.448,8.287 18.824,7.078 18.31,6.1" style="fill:white;fill-opacity:0.15;fill-rule:nonzero;"/>
            </g>
            <g transform="matrix(1,0,0,1,308.871,402.186)">
                <path d="M0,-3L-0.111,-3C-0.94,-3 -1.611,-2.329 -1.611,-1.5C-1.611,-0.671 -0.94,0 -0.111,0L0,0C0.829,0 1.5,-0.671 1.5,-1.5C1.5,-2.329 0.829,-3 0,-3" style="fill:white;fill-opacity:0.15;fill-rule:nonzero;"/>
            </g>
            <g transform="matrix(1,0,0,1,318.313,369.319)">
                <path d="M0,29.867L-3.871,29.867C-4.699,29.867 -5.371,30.538 -5.371,31.367C-5.371,32.196 -4.699,32.867 -3.871,32.867L-0.371,32.867C-0.601,33.504 -0.917,34.116 -1.337,34.678C-2.656,36.44 -4.674,37.45 -6.874,37.45L-27.62,37.45C-29.82,37.45 -31.838,36.44 -33.157,34.678C-33.578,34.116 -33.894,33.504 -34.124,32.867L-15.015,32.867C-14.186,32.867 -13.515,32.196 -13.515,31.367C-13.515,30.538 -14.186,29.867 -15.015,29.867L-34.495,29.867C-34.452,29.438 -34.379,29.009 -34.254,28.584L-26.747,3.057L-23.84,3.057C-23.012,3.057 -22.34,2.386 -22.34,1.557C-22.34,0.729 -23.012,0.057 -23.84,0.057L-26.839,0.057L-29.769,-7.269C-29.78,-7.297 -29.814,-7.382 -29.746,-7.482C-29.678,-7.583 -29.586,-7.583 -29.557,-7.583L-4.937,-7.583C-4.908,-7.583 -4.816,-7.583 -4.748,-7.482C-4.68,-7.382 -4.714,-7.297 -4.725,-7.269L-7.656,0.057L-18.269,0.057C-19.097,0.057 -19.769,0.729 -19.769,1.557C-19.769,2.386 -19.097,3.057 -18.269,3.057L-7.748,3.057L-0.24,28.584C-0.115,29.009 -0.043,29.438 0,29.867M45.532,-7.032C45.269,-8.106 44.184,-8.76 43.113,-8.496L-3.597,2.993L-3.989,1.66L-1.011,-5.783C-0.489,-7.088 -0.648,-8.562 -1.436,-9.725C-2.224,-10.888 -3.533,-11.583 -4.937,-11.583L-29.557,-11.583C-30.961,-11.583 -32.271,-10.888 -33.058,-9.725C-33.846,-8.562 -34.005,-7.088 -33.483,-5.783L-30.505,1.66L-38.092,27.455C-39.072,30.787 -38.44,34.293 -36.359,37.075C-34.278,39.855 -31.093,41.45 -27.62,41.45L-6.874,41.45C-3.401,41.45 -0.216,39.855 1.865,37.075C3.946,34.293 4.578,30.787 3.598,27.455L-2.467,6.834L44.068,-4.612C45.141,-4.876 45.796,-5.96 45.532,-7.032" style="fill:white;fill-opacity:0.15;fill-rule:nonzero;"/>
            </g>
            <g transform="matrix(1,0,0,1,366.214,294.56)">
                <path d="M0,-32.642C0,-36.672 3.279,-39.952 7.31,-39.952L12.53,-39.952L12.53,-34.572L8.169,-34.572C6.272,-34.572 4.729,-33.029 4.729,-31.133L4.729,-0.162C4.729,1.142 3.668,2.202 2.365,2.202C1.061,2.202 0,1.142 0,-0.162L0,-32.642ZM16.53,25.926L16.53,6.017L58.22,6.017L58.22,25.926C58.22,27.029 57.323,27.926 56.22,27.926L18.53,27.926C17.427,27.926 16.53,27.029 16.53,25.926M62.22,-30.882L62.22,-39.952L68.516,-39.952L62.22,-30.882ZM57.631,-43.952L17.12,-43.952C19.218,-47.705 26.942,-51.235 37.375,-51.235C47.808,-51.235 55.533,-47.705 57.631,-43.952M35.544,-55.235L35.544,-59.13C35.544,-59.923 36.189,-60.568 36.981,-60.568L37.768,-60.568C38.561,-60.568 39.206,-59.923 39.206,-59.13L39.206,-55.235L35.544,-55.235ZM16.53,-4.702L16.53,-15.894C22.959,-12.254 29.479,-12.677 35.875,-13.666L35.875,-5.784L20.53,-5.784C19.073,-5.784 17.709,-5.386 16.53,-4.702M58.215,2.017L16.535,2.017C16.639,-0.097 18.392,-1.784 20.53,-1.784L54.22,-1.784C56.358,-1.784 58.111,-0.097 58.215,2.017M58.22,-4.702C57.042,-5.386 55.678,-5.784 54.22,-5.784L38.875,-5.784L38.875,-14.16C38.954,-14.173 39.032,-14.186 39.11,-14.2C45.741,-15.327 52.024,-16.391 58.22,-13.662L58.22,-4.702ZM38.875,-39.952L58.22,-39.952L58.22,-17.969C51.642,-20.309 45.169,-19.286 38.875,-18.217L38.875,-39.952ZM16.53,-39.952L35.875,-39.952L35.875,-17.717C29.12,-16.636 22.684,-16.179 16.53,-20.672L16.53,-39.952ZM-4,-32.642L-4,-0.162C-4,3.347 -1.145,6.202 2.365,6.202C5.875,6.202 8.729,3.347 8.729,-0.162L8.729,-30.572L12.53,-30.572L12.53,25.926C12.53,29.234 15.222,31.926 18.53,31.926L56.22,31.926C59.528,31.926 62.22,29.234 62.22,25.926L62.22,-23.867L72.536,-38.728C73.244,-39.748 73.327,-41.066 72.75,-42.167C72.175,-43.268 71.045,-43.952 69.803,-43.952L61.95,-43.952C60.475,-49.389 53.054,-53.655 43.206,-54.877L43.206,-59.13C43.206,-62.128 40.766,-64.568 37.768,-64.568L36.981,-64.568C33.983,-64.568 31.544,-62.128 31.544,-59.13L31.544,-54.877C21.696,-53.655 14.275,-49.389 12.8,-43.952L7.31,-43.952C1.073,-43.952 -4,-38.878 -4,-32.642" style="fill:white;fill-opacity:0.15;fill-rule:nonzero;"/>
            </g>
            <g transform="matrix(1,0,0,1,416.839,309.475)">
                <path d="M0,-3.894C1.095,-3.998 2.07,-3.17 2.167,-2.069C2.262,-0.969 1.447,0.001 0.347,0.097C0.288,0.102 0.229,0.104 0.171,0.104C-0.854,0.104 -1.728,-0.681 -1.819,-1.723L-1.82,-1.734C-1.916,-2.834 -1.1,-3.798 0,-3.894" style="fill:white;fill-opacity:0.15;fill-rule:nonzero;"/>
            </g>
            <g transform="matrix(1,0,0,1,409.402,314.856)">
                <path d="M0,-2.921C0.836,-3 1.553,-2.377 1.625,-1.551C1.696,-0.726 1.085,0.001 0.26,0.073C0.216,0.077 0.172,0.079 0.128,0.079C-0.641,0.079 -1.296,-0.51 -1.364,-1.291L-1.365,-1.302C-1.437,-2.128 -0.825,-2.849 0,-2.921" style="fill:white;fill-opacity:0.15;fill-rule:nonzero;"/>
            </g>
            <g transform="matrix(1,0,0,1,388.98,318.853)">
                <path d="M0,-3.899C1.095,-3.998 2.07,-3.175 2.167,-2.074C2.262,-0.974 1.447,-0.004 0.347,0.092C0.288,0.097 0.229,0.099 0.171,0.099C-0.854,0.099 -1.728,-0.686 -1.819,-1.728L-1.82,-1.739C-1.916,-2.839 -1.1,-3.803 0,-3.899" style="fill:white;fill-opacity:0.15;fill-rule:nonzero;"/>
            </g>
            <g transform="matrix(1,0,0,1,396.07,312.331)">
                <path d="M0,-2.913C0.829,-2.999 1.555,-2.375 1.63,-1.55C1.705,-0.725 1.097,0.005 0.272,0.08C0.226,0.084 0.18,0.086 0.134,0.086C-0.632,0.086 -1.287,-0.499 -1.357,-1.278L-1.358,-1.289C-1.434,-2.114 -0.825,-2.838 0,-2.913" style="fill:white;fill-opacity:0.15;fill-rule:nonzero;"/>
            </g>
            <g transform="matrix(1,0,0,1,389.539,517.686)">
                <path d="M0,-3L4.458,-3C5.286,-3 5.958,-2.329 5.958,-1.5C5.958,-0.671 5.286,0 4.458,0L0,0C-0.829,0 -1.5,-0.671 -1.5,-1.5C-1.5,-2.329 -0.829,-3 0,-3" style="fill:white;fill-opacity:0.15;fill-rule:nonzero;"/>
            </g>
            <g transform="matrix(1,0,0,1,324.675,522.159)">
                <path d="M0,-1.916C0,-3.752 1.487,-5.239 3.316,-5.239L34.389,-5.239L34.389,-1.411L3.616,1.386C2.684,1.472 1.776,1.168 1.08,0.532C0.383,-0.104 0,-0.973 0,-1.916M45.033,-2.379L37.389,-1.684L37.389,-5.239L45.033,-5.239L45.033,-2.379ZM55.719,-10.659L78.464,-10.659L78.464,0.713C78.464,3.297 76.362,5.399 73.778,5.399L60.405,5.399C57.821,5.399 55.719,3.297 55.719,0.713L55.719,-10.659ZM-4,-1.923C-4,0.134 -3.132,2.103 -1.618,3.486C-0.267,4.72 1.503,5.399 3.32,5.399C3.539,5.399 3.758,5.39 3.978,5.37L46.201,1.531C47.815,1.384 49.033,0.051 49.033,-1.57L49.033,-1.744L51.719,-1.744L51.719,0.713C51.719,5.503 55.616,9.399 60.405,9.399L65.092,9.399L65.092,10.743C65.092,11.847 65.987,12.743 67.092,12.743C68.196,12.743 69.092,11.847 69.092,10.743L69.092,9.399L73.778,9.399C78.568,9.399 82.464,5.503 82.464,0.713L82.464,-10.659L82.693,-10.659C83.798,-10.659 84.693,-11.555 84.693,-12.659C84.693,-13.764 83.798,-14.659 82.693,-14.659L51.49,-14.659C50.386,-14.659 49.49,-13.764 49.49,-12.659C49.49,-11.555 50.386,-10.659 51.49,-10.659L51.719,-10.659L51.719,-5.744L49.033,-5.744L49.033,-6.124C49.033,-7.842 47.636,-9.239 45.918,-9.239L3.316,-9.239C-0.718,-9.239 -4,-5.958 -4,-1.923" style="fill:white;fill-opacity:0.15;fill-rule:nonzero;"/>
            </g>
            <g transform="matrix(1,0,0,1,63.7837,447.676)">
                <path d="M0,0C0,-1.017 0.827,-1.843 1.843,-1.843C2.86,-1.843 3.687,-1.017 3.687,0C3.687,1.017 2.86,1.843 1.843,1.843C0.827,1.843 0,1.017 0,0M-3,0C-3,2.67 -0.827,4.843 1.843,4.843C4.514,4.843 6.687,2.67 6.687,0C6.687,-2.67 4.514,-4.843 1.843,-4.843C-0.827,-4.843 -3,-2.67 -3,0" style="fill:white;fill-opacity:0.15;fill-rule:nonzero;"/>
            </g>
            <g transform="matrix(1,0,0,1,21.0327,440.267)">
                <path d="M0,-37.564C-0.006,-37.583 0,-37.703 0.059,-37.807L4.773,-46.121C4.841,-46.241 4.959,-46.311 5.095,-46.311L17.47,-46.311C17.452,-45.961 17.465,-45.609 17.536,-45.258L18.696,-39.456L12.472,-39.456C10.505,-39.456 8.69,-38.47 7.617,-36.818C6.543,-35.166 6.379,-33.106 7.179,-31.306C7.199,-31.26 7.221,-31.214 7.246,-31.17L15.784,-15.314C15.868,-15.105 15.91,-14.88 15.91,-14.645C15.91,-13.914 15.477,-13.26 14.807,-12.979C13.922,-12.605 12.875,-13.014 12.472,-13.889C12.457,-13.921 12.441,-13.952 12.425,-13.983L0,-37.564ZM20.162,24.6L27.187,-1.741L34.026,-1.741L31.667,17.253C31.564,18.075 32.148,18.824 32.97,18.927C33.033,18.935 33.096,18.938 33.157,18.938C33.903,18.938 34.549,18.382 34.644,17.623L37.049,-1.741L52.139,-1.741L55.789,27.691L33.398,27.691L33.953,23.194C34.055,22.372 33.47,21.623 32.648,21.521C31.823,21.42 31.077,22.004 30.976,22.827L30.376,27.691L22.537,27.691C21.767,27.691 21.057,27.341 20.588,26.73C20.119,26.12 19.964,25.344 20.162,24.6M66.652,27.691L58.812,27.691L55.163,-1.741L62.002,-1.741L69.026,24.6C69.225,25.344 69.069,26.12 68.601,26.73C68.132,27.341 67.421,27.691 66.652,27.691M69.663,-35.306L71.653,-45.258C71.724,-45.611 71.737,-45.965 71.718,-46.316L76.68,-46.316C76.721,-46.316 76.818,-46.316 76.882,-46.194C76.947,-46.073 76.893,-45.993 76.87,-45.959L69.663,-35.306ZM56.845,-50.316L32.344,-50.316L41.694,-53.952C41.7,-53.953 41.705,-53.953 41.71,-53.954C41.754,-53.967 41.791,-53.99 41.833,-54.005L42.088,-54.105C43.637,-54.708 45.336,-54.727 46.898,-54.173C46.912,-54.168 46.924,-54.16 46.939,-54.156C46.948,-54.153 46.957,-54.153 46.966,-54.15C47.011,-54.134 47.056,-54.123 47.101,-54.105L56.845,-50.316ZM48.283,-65.255L46.175,-58.45C44.938,-58.632 43.68,-58.605 42.45,-58.357L40.331,-65.255L48.283,-65.255ZM67.731,-46.042L63.793,-26.356C63.792,-26.35 63.791,-26.343 63.79,-26.337L61.899,-16.884L55.164,-16.884L57.223,-33.49C57.324,-34.312 56.741,-35.061 55.918,-35.163C55.096,-35.266 54.347,-34.681 54.245,-33.859L52.141,-16.884L37.048,-16.884L33.399,-46.316L55.79,-46.316L54.944,-39.495C54.843,-38.672 55.426,-37.923 56.249,-37.821C56.311,-37.814 56.374,-37.81 56.435,-37.81C57.181,-37.81 57.828,-38.366 57.922,-39.126L58.813,-46.316L67.506,-46.316C67.578,-46.316 67.638,-46.288 67.683,-46.232C67.729,-46.177 67.745,-46.113 67.731,-46.042M27.65,-12.884L61.539,-12.884L61.539,-5.74L27.65,-5.74L27.65,-12.884ZM21.671,-46.311L21.677,-46.311C21.695,-46.311 21.712,-46.315 21.73,-46.316L30.375,-46.316L34.025,-16.884L27.29,-16.884L21.458,-46.042C21.444,-46.113 21.459,-46.177 21.505,-46.232C21.548,-46.284 21.605,-46.307 21.671,-46.311M-3.581,-35.784L8.864,-12.161C9.854,-10.066 11.919,-8.832 14.095,-8.832C14.849,-8.832 15.615,-8.98 16.356,-9.291C18.515,-10.197 19.91,-12.299 19.91,-14.645C19.91,-15.465 19.743,-16.256 19.414,-16.996C19.394,-17.042 19.372,-17.086 19.348,-17.131L10.81,-32.988C10.493,-33.765 10.815,-34.398 10.971,-34.639C11.131,-34.884 11.597,-35.456 12.472,-35.456L19.496,-35.456L23.65,-14.688L23.65,-4.003L16.297,23.57C15.776,25.523 16.184,27.564 17.416,29.167C18.648,30.771 20.515,31.691 22.537,31.691L66.652,31.691C68.674,31.691 70.541,30.771 71.772,29.167C73.004,27.564 73.413,25.523 72.892,23.57L65.539,-4.003L65.539,-14.688L67.635,-25.171L80.183,-43.718C81.062,-45.017 81.151,-46.685 80.415,-48.07C79.68,-49.456 78.249,-50.316 76.68,-50.316L67.882,-50.316L49.998,-57.271L52.459,-65.219C52.751,-66.16 52.576,-67.195 51.991,-67.989C51.407,-68.781 50.47,-69.255 49.484,-69.255L39.132,-69.255C38.148,-69.255 37.212,-68.783 36.627,-67.991C36.042,-67.2 35.866,-66.166 36.155,-65.226L38.663,-57.065L21.292,-50.311L5.095,-50.311C3.525,-50.311 2.069,-49.461 1.293,-48.093L-3.42,-39.78C-4.117,-38.551 -4.177,-37.058 -3.581,-35.784" style="fill:white;fill-opacity:0.15;fill-rule:nonzero;"/>
            </g>
            <g transform="matrix(1,0,0,1,559.149,183.525)">
                <path d="M0,-3L-4.458,-3C-5.286,-3 -5.958,-2.329 -5.958,-1.5C-5.958,-0.671 -5.286,0 -4.458,0L0,0C0.829,0 1.5,-0.671 1.5,-1.5C1.5,-2.329 0.829,-3 0,-3" style="fill:white;fill-opacity:0.15;fill-rule:nonzero;"/>
            </g>
            <g transform="matrix(1,0,0,1,622.933,185.55)">
                <path d="M0,2.981C-0.697,3.617 -1.604,3.921 -2.536,3.835L-33.31,1.037L-33.31,-2.79L-2.236,-2.79C-0.408,-2.79 1.08,-1.303 1.08,0.533C1.08,1.476 0.696,2.345 0,2.981M-43.953,-2.79L-36.31,-2.79L-36.31,0.765L-43.953,0.07L-43.953,-2.79ZM-54.64,3.162C-54.64,5.746 -56.742,7.848 -59.326,7.848L-72.699,7.848C-75.283,7.848 -77.385,5.746 -77.385,3.162L-77.385,-8.21L-54.64,-8.21L-54.64,3.162ZM-2.236,-6.79L-44.839,-6.79C-46.556,-6.79 -47.953,-5.393 -47.953,-3.676L-47.953,-3.295L-50.64,-3.295L-50.64,-8.21L-50.411,-8.21C-49.306,-8.21 -48.411,-9.106 -48.411,-10.21C-48.411,-11.315 -49.306,-12.21 -50.411,-12.21L-81.614,-12.21C-82.718,-12.21 -83.614,-11.315 -83.614,-10.21C-83.614,-9.106 -82.718,-8.21 -81.614,-8.21L-81.385,-8.21L-81.385,3.162C-81.385,7.952 -77.488,11.848 -72.699,11.848L-68.012,11.848L-68.012,13.191C-68.012,14.296 -67.117,15.191 -66.012,15.191C-64.908,15.191 -64.012,14.296 -64.012,13.191L-64.012,11.848L-59.326,11.848C-54.536,11.848 -50.64,7.952 -50.64,3.162L-50.64,0.705L-47.953,0.705L-47.953,0.878C-47.953,2.5 -46.736,3.833 -45.121,3.98L-2.898,7.818C-2.679,7.838 -2.459,7.848 -2.24,7.848C-0.424,7.848 1.346,7.168 2.697,5.935C4.211,4.552 5.08,2.583 5.08,0.525C5.08,-3.509 1.798,-6.79 -2.236,-6.79" style="fill:white;fill-opacity:0.15;fill-rule:nonzero;"/>
            </g>
            <g transform="matrix(1,0,0,1,22.9331,185.55)">
                <path d="M0,2.981C-0.697,3.617 -1.604,3.921 -2.536,3.835L-33.31,1.037L-33.31,-2.79L-2.236,-2.79C-0.408,-2.79 1.08,-1.303 1.08,0.533C1.08,1.476 0.696,2.345 0,2.981M-43.953,-2.79L-36.31,-2.79L-36.31,0.765L-43.953,0.07L-43.953,-2.79ZM-54.64,3.162C-54.64,5.746 -56.742,7.848 -59.326,7.848L-72.699,7.848C-75.283,7.848 -77.385,5.746 -77.385,3.162L-77.385,-8.21L-54.64,-8.21L-54.64,3.162ZM-2.236,-6.79L-44.839,-6.79C-46.556,-6.79 -47.953,-5.393 -47.953,-3.676L-47.953,-3.295L-50.64,-3.295L-50.64,-8.21L-50.411,-8.21C-49.306,-8.21 -48.411,-9.106 -48.411,-10.21C-48.411,-11.315 -49.306,-12.21 -50.411,-12.21L-81.614,-12.21C-82.718,-12.21 -83.614,-11.315 -83.614,-10.21C-83.614,-9.106 -82.718,-8.21 -81.614,-8.21L-81.385,-8.21L-81.385,3.162C-81.385,7.952 -77.488,11.848 -72.699,11.848L-68.012,11.848L-68.012,13.191C-68.012,14.296 -67.117,15.191 -66.012,15.191C-64.908,15.191 -64.012,14.296 -64.012,13.191L-64.012,11.848L-59.326,11.848C-54.536,11.848 -50.64,7.952 -50.64,3.162L-50.64,0.705L-47.953,0.705L-47.953,0.878C-47.953,2.5 -46.736,3.833 -45.121,3.98L-2.898,7.818C-2.679,7.838 -2.459,7.848 -2.24,7.848C-0.424,7.848 1.346,7.168 2.697,5.935C4.211,4.552 5.08,2.583 5.08,0.525C5.08,-3.509 1.798,-6.79 -2.236,-6.79" style="fill:white;fill-opacity:0.15;fill-rule:nonzero;"/>
            </g>
            <g transform="matrix(1,0,0,1,271.397,41.1338)">
                <path d="M0,-3L-19.058,-3C-19.887,-3 -20.558,-2.329 -20.558,-1.5C-20.558,-0.671 -19.887,0 -19.058,0L0,0C0.829,0 1.5,-0.671 1.5,-1.5C1.5,-2.329 0.829,-3 0,-3" style="fill:white;fill-opacity:0.15;fill-rule:nonzero;"/>
            </g>
            <g transform="matrix(1,0,0,1,275.029,0.5636)">
                <path d="M0,-1.174L6.996,12.135C7.062,12.262 7.059,12.388 6.985,12.51C6.911,12.633 6.801,12.695 6.658,12.695L-32.979,12.695C-33.122,12.695 -33.231,12.633 -33.306,12.51C-33.379,12.388 -33.383,12.262 -33.316,12.135L-26.321,-1.174C-26.238,-1.331 -26.17,-1.493 -26.104,-1.655L-0.216,-1.655C-0.15,-1.493 -0.082,-1.331 0,-1.174M11.252,42.053C9.832,44.185 7.548,45.408 4.986,45.408L-31.307,45.408C-33.869,45.408 -36.153,44.185 -37.573,42.053C-38.993,39.92 -39.241,37.341 -38.254,34.976L-30.615,16.695L4.295,16.695L11.933,34.976C12.92,37.341 12.672,39.92 11.252,42.053M-33.316,-19.445C-33.383,-19.571 -33.379,-19.698 -33.306,-19.82C-33.231,-19.943 -33.122,-20.005 -32.979,-20.005L6.658,-20.005C6.801,-20.005 6.911,-19.943 6.985,-19.82C7.059,-19.698 7.062,-19.571 6.996,-19.445L0,-6.136C-0.082,-5.98 -0.15,-5.818 -0.216,-5.655L-26.104,-5.655C-26.17,-5.818 -26.238,-5.979 -26.321,-6.136L-33.316,-19.445ZM-35.955,-33.044C-35.515,-33.832 -34.712,-34.303 -33.809,-34.303L7.486,-34.303C8.39,-34.303 9.192,-33.833 9.632,-33.044C10.073,-32.255 10.052,-31.325 9.579,-30.556L5.539,-24.005L-31.859,-24.005L-35.9,-30.556C-36.375,-31.324 -36.395,-32.255 -35.955,-33.044M-29.347,-41.99C-29.414,-42.137 -29.375,-42.26 -29.332,-42.337C-29.288,-42.415 -29.202,-42.51 -29.042,-42.528L6.039,-46.426C6.19,-46.44 6.312,-46.387 6.398,-46.259C6.484,-46.132 6.49,-45.999 6.417,-45.864L2.312,-38.303L-27.669,-38.303L-29.347,-41.99ZM18.31,6.1L12.693,-4.586C12.347,-5.243 11.666,-5.655 10.922,-5.655L4.267,-5.655L10.537,-17.584C11.257,-18.955 11.209,-20.564 10.408,-21.889C10.174,-22.277 9.884,-22.612 9.558,-22.902L12.983,-28.457C14.229,-30.477 14.282,-32.921 13.125,-34.994C11.968,-37.066 9.86,-38.303 7.486,-38.303L6.864,-38.303L9.932,-43.955C10.713,-45.394 10.631,-47.132 9.718,-48.491C8.804,-49.85 7.224,-50.582 5.597,-50.402L-29.483,-46.504C-30.875,-46.349 -32.118,-45.53 -32.81,-44.313C-33.501,-43.095 -33.568,-41.608 -32.988,-40.333L-32.064,-38.303L-33.809,-38.303C-36.183,-38.303 -38.291,-37.066 -39.448,-34.993C-40.604,-32.92 -40.551,-30.476 -39.305,-28.455L-35.879,-22.902C-36.205,-22.612 -36.495,-22.277 -36.729,-21.889C-37.53,-20.564 -37.578,-18.954 -36.857,-17.584L-29.861,-4.274C-29.766,-4.092 -29.719,-3.894 -29.713,-3.694C-29.713,-3.681 -29.717,-3.668 -29.717,-3.655C-29.717,-3.642 -29.713,-3.63 -29.713,-3.616C-29.719,-3.417 -29.766,-3.217 -29.862,-3.035L-36.857,10.274C-37.578,11.644 -37.53,13.253 -36.729,14.578C-36.259,15.356 -35.579,15.944 -34.786,16.302L-41.944,33.434C-43.435,37.002 -43.045,41.052 -40.902,44.27C-38.759,47.487 -35.172,49.408 -31.307,49.408L4.986,49.408C8.852,49.408 12.438,47.487 14.582,44.27C16.724,41.052 17.114,37.002 15.624,33.434L8.466,16.301C9.258,15.944 9.939,15.356 10.409,14.578C11.209,13.253 11.257,11.644 10.537,10.274L4.267,-1.655L9.714,-1.655L14.769,7.962C15.127,8.642 15.822,9.032 16.541,9.032C16.855,9.032 17.173,8.957 17.47,8.802C18.448,8.287 18.824,7.078 18.31,6.1" style="fill:white;fill-opacity:0.15;fill-rule:nonzero;"/>
            </g>
            <g transform="matrix(1,0,0,1,275.029,600.563)">
                <path d="M0,-1.174L6.996,12.135C7.062,12.262 7.059,12.388 6.985,12.51C6.911,12.633 6.801,12.695 6.658,12.695L-32.979,12.695C-33.122,12.695 -33.231,12.633 -33.306,12.51C-33.379,12.388 -33.383,12.262 -33.316,12.135L-26.321,-1.174C-26.238,-1.331 -26.17,-1.492 -26.104,-1.655L-0.216,-1.655C-0.15,-1.492 -0.082,-1.331 0,-1.174M11.252,42.053C9.832,44.185 7.548,45.408 4.986,45.408L-31.307,45.408C-33.869,45.408 -36.153,44.185 -37.573,42.053C-38.993,39.92 -39.241,37.341 -38.254,34.976L-30.615,16.695L4.295,16.695L11.933,34.976C12.92,37.341 12.672,39.92 11.252,42.053M-33.316,-19.445C-33.383,-19.571 -33.379,-19.698 -33.306,-19.82C-33.231,-19.943 -33.122,-20.005 -32.979,-20.005L6.658,-20.005C6.801,-20.005 6.911,-19.943 6.985,-19.82C7.059,-19.698 7.062,-19.571 6.996,-19.445L0,-6.136C-0.082,-5.979 -0.15,-5.818 -0.216,-5.655L-26.104,-5.655C-26.17,-5.817 -26.238,-5.979 -26.321,-6.136L-33.316,-19.445ZM-35.955,-33.044C-35.515,-33.832 -34.712,-34.303 -33.809,-34.303L7.486,-34.303C8.39,-34.303 9.192,-33.833 9.632,-33.044C10.073,-32.255 10.052,-31.325 9.579,-30.556L5.539,-24.005L-31.859,-24.005L-35.9,-30.556C-36.375,-31.324 -36.395,-32.255 -35.955,-33.044M-29.347,-41.99C-29.414,-42.137 -29.375,-42.26 -29.332,-42.337C-29.288,-42.415 -29.202,-42.51 -29.042,-42.528L6.039,-46.426C6.19,-46.44 6.312,-46.387 6.398,-46.259C6.484,-46.132 6.49,-45.999 6.417,-45.864L2.312,-38.303L-27.669,-38.303L-29.347,-41.99ZM18.31,6.1L12.693,-4.586C12.347,-5.243 11.666,-5.655 10.922,-5.655L4.267,-5.655L10.537,-17.584C11.257,-18.955 11.209,-20.564 10.408,-21.889C10.174,-22.277 9.884,-22.612 9.558,-22.902L12.983,-28.457C14.229,-30.477 14.282,-32.921 13.125,-34.994C11.968,-37.066 9.86,-38.303 7.486,-38.303L6.864,-38.303L9.932,-43.955C10.713,-45.394 10.631,-47.132 9.718,-48.491C8.804,-49.85 7.224,-50.582 5.597,-50.402L-29.483,-46.504C-30.875,-46.349 -32.118,-45.53 -32.81,-44.313C-33.501,-43.095 -33.568,-41.608 -32.988,-40.333L-32.064,-38.303L-33.809,-38.303C-36.183,-38.303 -38.291,-37.066 -39.448,-34.993C-40.604,-32.92 -40.551,-30.476 -39.305,-28.455L-35.879,-22.902C-36.205,-22.612 -36.495,-22.277 -36.729,-21.889C-37.53,-20.564 -37.578,-18.954 -36.857,-17.584L-29.861,-4.274C-29.766,-4.092 -29.719,-3.893 -29.713,-3.694C-29.713,-3.68 -29.717,-3.668 -29.717,-3.655C-29.717,-3.641 -29.713,-3.629 -29.713,-3.616C-29.719,-3.416 -29.766,-3.217 -29.862,-3.035L-36.857,10.274C-37.578,11.644 -37.53,13.253 -36.729,14.578C-36.259,15.356 -35.579,15.944 -34.786,16.302L-41.944,33.434C-43.435,37.002 -43.045,41.052 -40.902,44.27C-38.759,47.487 -35.172,49.408 -31.307,49.408L4.986,49.408C8.852,49.408 12.438,47.487 14.582,44.27C16.724,41.052 17.114,37.002 15.624,33.434L8.466,16.302C9.258,15.944 9.939,15.357 10.409,14.578C11.209,13.253 11.257,11.644 10.537,10.274L4.267,-1.655L9.714,-1.655L14.769,7.962C15.127,8.642 15.822,9.032 16.541,9.032C16.855,9.032 17.173,8.957 17.47,8.802C18.448,8.287 18.824,7.078 18.31,6.1" style="fill:white;fill-opacity:0.15;fill-rule:nonzero;"/>
            </g>
            <g transform="matrix(1,0,0,1,114.291,-4.0162)">
                <path d="M0,32.318C0,33.622 -1.061,34.682 -2.365,34.682C-3.668,34.682 -4.729,33.622 -4.729,32.318L-4.729,1.347C-4.729,-0.549 -6.272,-2.092 -8.169,-2.092L-12.53,-2.092L-12.53,-7.472L-7.31,-7.472C-3.279,-7.472 0,-4.192 0,-0.162L0,32.318ZM-18.53,60.406L-56.22,60.406C-57.323,60.406 -58.22,59.509 -58.22,58.406L-58.22,38.497L-16.53,38.497L-16.53,58.406C-16.53,59.509 -17.427,60.406 -18.53,60.406M-68.516,-7.472L-62.22,-7.472L-62.22,1.598L-68.516,-7.472ZM-37.375,-18.755C-26.942,-18.755 -19.217,-15.224 -17.119,-11.472L-57.63,-11.472C-55.532,-15.224 -47.808,-18.755 -37.375,-18.755M-39.206,-22.755L-39.206,-26.65C-39.206,-27.443 -38.561,-28.088 -37.768,-28.088L-36.981,-28.088C-36.189,-28.088 -35.544,-27.443 -35.544,-26.65L-35.544,-22.755L-39.206,-22.755ZM-20.53,26.696L-35.875,26.696L-35.875,18.814C-29.479,19.802 -22.958,20.226 -16.53,16.586L-16.53,27.778C-17.708,27.094 -19.072,26.696 -20.53,26.696M-54.22,30.696L-20.53,30.696C-18.392,30.696 -16.639,32.383 -16.535,34.497L-58.215,34.497C-58.111,32.383 -56.358,30.696 -54.22,30.696M-58.22,18.818C-52.024,16.089 -45.74,17.153 -39.11,18.28C-39.032,18.294 -38.953,18.307 -38.875,18.32L-38.875,26.696L-54.22,26.696C-55.677,26.696 -57.041,27.094 -58.22,27.778L-58.22,18.818ZM-38.875,14.263C-45.168,13.194 -51.642,12.172 -58.22,14.511L-58.22,-7.472L-38.875,-7.472L-38.875,14.263ZM-16.53,11.808C-22.683,16.301 -29.119,15.844 -35.875,14.763L-35.875,-7.472L-16.53,-7.472L-16.53,11.808ZM-7.31,-11.472L-12.8,-11.472C-14.274,-16.909 -21.696,-21.175 -31.544,-22.397L-31.544,-26.65C-31.544,-29.648 -33.983,-32.088 -36.981,-32.088L-37.768,-32.088C-40.766,-32.088 -43.206,-29.648 -43.206,-26.65L-43.206,-22.397C-53.054,-21.175 -60.475,-16.909 -61.95,-11.472L-69.803,-11.472C-71.045,-11.472 -72.175,-10.788 -72.75,-9.687C-73.327,-8.586 -73.244,-7.268 -72.536,-6.248L-62.22,8.613L-62.22,58.406C-62.22,61.714 -59.528,64.406 -56.22,64.406L-18.53,64.406C-15.222,64.406 -12.53,61.714 -12.53,58.406L-12.53,1.908L-8.729,1.908L-8.729,32.318C-8.729,35.827 -5.875,38.682 -2.365,38.682C1.145,38.682 4,35.827 4,32.318L4,-0.162C4,-6.398 -1.073,-11.472 -7.31,-11.472" style="fill:white;fill-opacity:0.15;fill-rule:nonzero;"/>
            </g>
            <g transform="matrix(1,0,0,1,63.666,43.3794)">
                <path d="M0,-3.894C-1.095,-3.998 -2.07,-3.17 -2.167,-2.069C-2.262,-0.969 -1.447,0.001 -0.347,0.097C-0.288,0.102 -0.229,0.104 -0.171,0.104C0.854,0.104 1.728,-0.681 1.819,-1.723L1.82,-1.734C1.916,-2.834 1.1,-3.798 0,-3.894" style="fill:white;fill-opacity:0.15;fill-rule:nonzero;"/>
            </g>
            <g transform="matrix(1,0,0,1,71.103,48.7599)">
                <path d="M0,-2.921C-0.836,-3 -1.553,-2.377 -1.625,-1.551C-1.696,-0.726 -1.085,0.001 -0.26,0.073C-0.216,0.077 -0.172,0.079 -0.128,0.079C0.641,0.079 1.296,-0.51 1.364,-1.291L1.365,-1.302C1.437,-2.128 0.825,-2.849 0,-2.921" style="fill:white;fill-opacity:0.15;fill-rule:nonzero;"/>
            </g>
            <g transform="matrix(1,0,0,1,91.5249,52.7574)">
                <path d="M0,-3.899C-1.095,-3.998 -2.07,-3.175 -2.167,-2.074C-2.262,-0.974 -1.447,-0.004 -0.347,0.092C-0.288,0.097 -0.229,0.099 -0.171,0.099C0.854,0.099 1.728,-0.686 1.819,-1.728L1.82,-1.739C1.916,-2.839 1.1,-3.803 0,-3.899" style="fill:white;fill-opacity:0.15;fill-rule:nonzero;"/>
            </g>
            <g transform="matrix(1,0,0,1,84.4351,46.2348)">
                <path d="M0,-2.913C-0.829,-2.999 -1.555,-2.375 -1.63,-1.55C-1.705,-0.725 -1.097,0.005 -0.272,0.08C-0.226,0.084 -0.18,0.086 -0.134,0.086C0.632,0.086 1.287,-0.499 1.357,-1.278L1.358,-1.289C1.434,-2.114 0.825,-2.838 0,-2.913" style="fill:white;fill-opacity:0.15;fill-rule:nonzero;"/>
            </g>
            <g transform="matrix(1,0,0,1,114.291,595.984)">
                <path d="M0,32.318C0,33.622 -1.061,34.682 -2.365,34.682C-3.668,34.682 -4.729,33.622 -4.729,32.318L-4.729,1.347C-4.729,-0.549 -6.272,-2.092 -8.169,-2.092L-12.53,-2.092L-12.53,-7.472L-7.31,-7.472C-3.279,-7.472 0,-4.192 0,-0.162L0,32.318ZM-18.53,60.406L-56.22,60.406C-57.323,60.406 -58.22,59.509 -58.22,58.406L-58.22,38.497L-16.53,38.497L-16.53,58.406C-16.53,59.509 -17.427,60.406 -18.53,60.406M-68.516,-7.472L-62.22,-7.472L-62.22,1.598L-68.516,-7.472ZM-37.375,-18.755C-26.942,-18.755 -19.217,-15.224 -17.119,-11.472L-57.63,-11.472C-55.532,-15.224 -47.808,-18.755 -37.375,-18.755M-39.206,-22.755L-39.206,-26.65C-39.206,-27.443 -38.561,-28.088 -37.768,-28.088L-36.981,-28.088C-36.189,-28.088 -35.544,-27.443 -35.544,-26.65L-35.544,-22.755L-39.206,-22.755ZM-20.53,26.696L-35.875,26.696L-35.875,18.814C-29.479,19.803 -22.958,20.226 -16.53,16.586L-16.53,27.778C-17.708,27.094 -19.072,26.696 -20.53,26.696M-54.22,30.696L-20.53,30.696C-18.392,30.696 -16.639,32.383 -16.535,34.497L-58.215,34.497C-58.111,32.383 -56.358,30.696 -54.22,30.696M-58.22,18.818C-52.024,16.089 -45.74,17.153 -39.11,18.28C-39.032,18.294 -38.953,18.307 -38.875,18.32L-38.875,26.696L-54.22,26.696C-55.677,26.696 -57.041,27.094 -58.22,27.778L-58.22,18.818ZM-38.875,14.264C-45.168,13.195 -51.642,12.172 -58.22,14.511L-58.22,-7.472L-38.875,-7.472L-38.875,14.264ZM-16.53,11.808C-22.683,16.301 -29.119,15.844 -35.875,14.763L-35.875,-7.472L-16.53,-7.472L-16.53,11.808ZM-7.31,-11.472L-12.8,-11.472C-14.274,-16.909 -21.696,-21.175 -31.544,-22.397L-31.544,-26.65C-31.544,-29.648 -33.983,-32.088 -36.981,-32.088L-37.768,-32.088C-40.766,-32.088 -43.206,-29.648 -43.206,-26.65L-43.206,-22.397C-53.054,-21.175 -60.475,-16.909 -61.95,-11.472L-69.803,-11.472C-71.045,-11.472 -72.175,-10.788 -72.75,-9.687C-73.327,-8.586 -73.244,-7.268 -72.536,-6.248L-62.22,8.613L-62.22,58.406C-62.22,61.714 -59.528,64.406 -56.22,64.406L-18.53,64.406C-15.222,64.406 -12.53,61.714 -12.53,58.406L-12.53,1.908L-8.729,1.908L-8.729,32.318C-8.729,35.827 -5.875,38.682 -2.365,38.682C1.145,38.682 4,35.827 4,32.318L4,-0.162C4,-6.398 -1.073,-11.472 -7.31,-11.472" style="fill:white;fill-opacity:0.15;fill-rule:nonzero;"/>
            </g>
            <g transform="matrix(1,0,0,1,351.717,447.298)">
                <path d="M0,-14.508C4.989,-19.497 11.583,-21.595 15.957,-20C8.813,-16.653 6.379,-10.679 4.376,-5.752C2.367,-0.808 0.864,2.862 -4.143,3.701C-7.788,-0.322 -5.953,-8.555 0,-14.508M-0.599,5.743C3.729,3.768 5.47,-0.476 7.156,-4.622C9.292,-9.876 11.501,-15.297 18.863,-17.959C22.217,-13.853 20.34,-5.833 14.507,0C9.831,4.676 3.748,6.806 -0.599,5.743M-2.829,-17.336C-10.561,-9.604 -12.328,1.209 -6.768,6.768C-1.209,12.327 9.604,10.56 17.336,2.828C25.068,-4.904 26.835,-15.717 21.276,-21.276C15.716,-26.835 4.903,-25.068 -2.829,-17.336" style="fill:white;fill-opacity:0.15;fill-rule:nonzero;"/>
            </g>
            <g transform="matrix(1,0,0,1,492.699,196.294)">
                <path d="M0,21.91C-5.007,21.071 -6.51,17.401 -8.519,12.458C-10.522,7.53 -12.956,1.556 -20.1,-1.791C-15.726,-3.386 -9.132,-1.288 -4.143,3.702C1.81,9.654 3.645,17.888 0,21.91M-18.65,18.209C-24.482,12.376 -26.36,4.356 -23.006,0.25C-15.644,2.912 -13.435,8.333 -11.298,13.587C-9.613,17.733 -7.873,21.977 -3.544,23.952C-7.891,25.015 -13.974,22.885 -18.65,18.209M-25.418,-3.067C-30.978,2.492 -29.21,13.305 -21.479,21.037C-13.747,28.769 -2.934,30.536 2.625,24.977C8.185,19.418 6.417,8.605 -1.314,0.873C-9.046,-6.859 -19.859,-8.626 -25.418,-3.067" style="fill:white;fill-opacity:0.15;fill-rule:nonzero;"/>
            </g>
            <g transform="matrix(1,0,0,1,29.1587,291.571)">
                <path d="M0,30.763C-3.754,27.346 -3.03,23.447 -2.041,18.203C-1.056,12.976 0.134,6.636 -4.058,-0.047C0.483,0.981 4.889,6.317 6.38,13.213C8.16,21.441 5.243,29.356 0,30.763M-13.672,17.55C-15.416,9.488 -12.65,1.729 -7.606,0.095C-2.86,6.32 -3.938,12.074 -4.989,17.647C-5.818,22.045 -6.654,26.555 -4.085,30.56C-8.315,29.099 -12.274,24.014 -13.672,17.55M-7.838,-4.001C-15.522,-2.339 -19.894,7.708 -17.582,18.395C-15.271,29.083 -7.139,36.425 0.546,34.763C8.23,33.101 12.602,23.055 10.29,12.367C7.979,1.68 -0.153,-5.662 -7.838,-4.001" style="fill:white;fill-opacity:0.15;fill-rule:nonzero;"/>
            </g>
            <g transform="matrix(1,0,0,1,149.381,65.0864)">
                <path d="M0,-3L-2.5,-3L-2.5,-5.5C-2.5,-6.329 -3.171,-7 -4,-7C-4.829,-7 -5.5,-6.329 -5.5,-5.5L-5.5,-3L-8,-3C-8.829,-3 -9.5,-2.329 -9.5,-1.5C-9.5,-0.671 -8.829,0 -8,0L-5.5,0L-5.5,2.5C-5.5,3.329 -4.829,4 -4,4C-3.171,4 -2.5,3.329 -2.5,2.5L-2.5,0L0,0C0.829,0 1.5,-0.671 1.5,-1.5C1.5,-2.329 0.829,-3 0,-3" style="fill:white;fill-opacity:0.15;fill-rule:nonzero;"/>
            </g>
            <g transform="matrix(1,0,0,1,254.839,97.082)">
                <path d="M0,-3L-2.5,-3L-2.5,-5.5C-2.5,-6.329 -3.171,-7 -4,-7C-4.829,-7 -5.5,-6.329 -5.5,-5.5L-5.5,-3L-8,-3C-8.829,-3 -9.5,-2.329 -9.5,-1.5C-9.5,-0.671 -8.829,0 -8,0L-5.5,0L-5.5,2.5C-5.5,3.329 -4.829,4 -4,4C-3.171,4 -2.5,3.329 -2.5,2.5L-2.5,0L0,0C0.829,0 1.5,-0.671 1.5,-1.5C1.5,-2.329 0.829,-3 0,-3" style="fill:white;fill-opacity:0.15;fill-rule:nonzero;"/>
            </g>
            <g transform="matrix(1,0,0,1,366.337,30.3311)">
                <path d="M0,-3L-2.5,-3L-2.5,-5.5C-2.5,-6.329 -3.171,-7 -4,-7C-4.829,-7 -5.5,-6.329 -5.5,-5.5L-5.5,-3L-8,-3C-8.829,-3 -9.5,-2.329 -9.5,-1.5C-9.5,-0.671 -8.829,0 -8,0L-5.5,0L-5.5,2.5C-5.5,3.329 -4.829,4 -4,4C-3.171,4 -2.5,3.329 -2.5,2.5L-2.5,0L0,0C0.829,0 1.5,-0.671 1.5,-1.5C1.5,-2.329 0.829,-3 0,-3" style="fill:white;fill-opacity:0.15;fill-rule:nonzero;"/>
            </g>
            <g transform="matrix(1,0,0,1,32.0127,97.082)">
                <path d="M0,-3L-2.5,-3L-2.5,-5.5C-2.5,-6.329 -3.171,-7 -4,-7C-4.829,-7 -5.5,-6.329 -5.5,-5.5L-5.5,-3L-8,-3C-8.829,-3 -9.5,-2.329 -9.5,-1.5C-9.5,-0.671 -8.829,0 -8,0L-5.5,0L-5.5,2.5C-5.5,3.329 -4.829,4 -4,4C-3.171,4 -2.5,3.329 -2.5,2.5L-2.5,0L0,0C0.829,0 1.5,-0.671 1.5,-1.5C1.5,-2.329 0.829,-3 0,-3" style="fill:white;fill-opacity:0.15;fill-rule:nonzero;"/>
            </g>
            <g transform="matrix(1,0,0,1,415.033,106.76)">
                <path d="M0,-3L-2.5,-3L-2.5,-5.5C-2.5,-6.329 -3.171,-7 -4,-7C-4.829,-7 -5.5,-6.329 -5.5,-5.5L-5.5,-3L-8,-3C-8.829,-3 -9.5,-2.329 -9.5,-1.5C-9.5,-0.671 -8.829,0 -8,0L-5.5,0L-5.5,2.5C-5.5,3.329 -4.829,4 -4,4C-3.171,4 -2.5,3.329 -2.5,2.5L-2.5,0L0,0C0.829,0 1.5,-0.671 1.5,-1.5C1.5,-2.329 0.829,-3 0,-3" style="fill:white;fill-opacity:0.15;fill-rule:nonzero;"/>
            </g>
            <g transform="matrix(1,0,0,1,162.254,245.249)">
                <path d="M0,-3L-2.5,-3L-2.5,-5.5C-2.5,-6.329 -3.171,-7 -4,-7C-4.829,-7 -5.5,-6.329 -5.5,-5.5L-5.5,-3L-8,-3C-8.829,-3 -9.5,-2.329 -9.5,-1.5C-9.5,-0.671 -8.829,0 -8,0L-5.5,0L-5.5,2.5C-5.5,3.329 -4.829,4 -4,4C-3.171,4 -2.5,3.329 -2.5,2.5L-2.5,0L0,0C0.829,0 1.5,-0.671 1.5,-1.5C1.5,-2.329 0.829,-3 0,-3" style="fill:white;fill-opacity:0.15;fill-rule:nonzero;"/>
            </g>
            <g transform="matrix(1,0,0,1,54.6704,272.256)">
                <path d="M0,-3L-2.5,-3L-2.5,-5.5C-2.5,-6.329 -3.171,-7 -4,-7C-4.829,-7 -5.5,-6.329 -5.5,-5.5L-5.5,-3L-8,-3C-8.829,-3 -9.5,-2.329 -9.5,-1.5C-9.5,-0.671 -8.829,0 -8,0L-5.5,0L-5.5,2.5C-5.5,3.329 -4.829,4 -4,4C-3.171,4 -2.5,3.329 -2.5,2.5L-2.5,0L0,0C0.829,0 1.5,-0.671 1.5,-1.5C1.5,-2.329 0.829,-3 0,-3" style="fill:white;fill-opacity:0.15;fill-rule:nonzero;"/>
            </g>
            <g transform="matrix(1,0,0,1,122.291,355.785)">
                <path d="M0,-3L-2.5,-3L-2.5,-5.5C-2.5,-6.329 -3.171,-7 -4,-7C-4.829,-7 -5.5,-6.329 -5.5,-5.5L-5.5,-3L-8,-3C-8.829,-3 -9.5,-2.329 -9.5,-1.5C-9.5,-0.671 -8.829,0 -8,0L-5.5,0L-5.5,2.5C-5.5,3.329 -4.829,4 -4,4C-3.171,4 -2.5,3.329 -2.5,2.5L-2.5,0L0,0C0.829,0 1.5,-0.671 1.5,-1.5C1.5,-2.329 0.829,-3 0,-3" style="fill:white;fill-opacity:0.15;fill-rule:nonzero;"/>
            </g>
            <g transform="matrix(1,0,0,1,272.339,329.485)">
                <path d="M0,-3L-2.5,-3L-2.5,-5.5C-2.5,-6.329 -3.171,-7 -4,-7C-4.829,-7 -5.5,-6.329 -5.5,-5.5L-5.5,-3L-8,-3C-8.829,-3 -9.5,-2.329 -9.5,-1.5C-9.5,-0.671 -8.829,0 -8,0L-5.5,0L-5.5,2.5C-5.5,3.329 -4.829,4 -4,4C-3.171,4 -2.5,3.329 -2.5,2.5L-2.5,0L0,0C0.829,0 1.5,-0.671 1.5,-1.5C1.5,-2.329 0.829,-3 0,-3" style="fill:white;fill-opacity:0.15;fill-rule:nonzero;"/>
            </g>
            <g transform="matrix(1,0,0,1,344.337,230.249)">
                <path d="M0,-3L-2.5,-3L-2.5,-5.5C-2.5,-6.329 -3.171,-7 -4,-7C-4.829,-7 -5.5,-6.329 -5.5,-5.5L-5.5,-3L-8,-3C-8.829,-3 -9.5,-2.329 -9.5,-1.5C-9.5,-0.671 -8.829,0 -8,0L-5.5,0L-5.5,2.5C-5.5,3.329 -4.829,4 -4,4C-3.171,4 -2.5,3.329 -2.5,2.5L-2.5,0L0,0C0.829,0 1.5,-0.671 1.5,-1.5C1.5,-2.329 0.829,-3 0,-3" style="fill:white;fill-opacity:0.15;fill-rule:nonzero;"/>
            </g>
            <g transform="matrix(1,0,0,1,522.145,158.54)">
                <path d="M0,-3L-2.5,-3L-2.5,-5.5C-2.5,-6.329 -3.171,-7 -4,-7C-4.829,-7 -5.5,-6.329 -5.5,-5.5L-5.5,-3L-8,-3C-8.829,-3 -9.5,-2.329 -9.5,-1.5C-9.5,-0.671 -8.829,0 -8,0L-5.5,0L-5.5,2.5C-5.5,3.329 -4.829,4 -4,4C-3.171,4 -2.5,3.329 -2.5,2.5L-2.5,0L0,0C0.829,0 1.5,-0.671 1.5,-1.5C1.5,-2.329 0.829,-3 0,-3" style="fill:white;fill-opacity:0.15;fill-rule:nonzero;"/>
            </g>
            <g transform="matrix(1,0,0,1,502.062,44.814)">
                <path d="M0,-3L-2.5,-3L-2.5,-5.5C-2.5,-6.329 -3.171,-7 -4,-7C-4.829,-7 -5.5,-6.329 -5.5,-5.5L-5.5,-3L-8,-3C-8.829,-3 -9.5,-2.329 -9.5,-1.5C-9.5,-0.671 -8.829,0 -8,0L-5.5,0L-5.5,2.5C-5.5,3.329 -4.829,4 -4,4C-3.171,4 -2.5,3.329 -2.5,2.5L-2.5,0L0,0C0.829,0 1.5,-0.671 1.5,-1.5C1.5,-2.329 0.829,-3 0,-3" style="fill:white;fill-opacity:0.15;fill-rule:nonzero;"/>
            </g>
            <g transform="matrix(1,0,0,1,463.105,350.469)">
                <path d="M0,-3L-2.5,-3L-2.5,-5.5C-2.5,-6.329 -3.171,-7 -4,-7C-4.829,-7 -5.5,-6.329 -5.5,-5.5L-5.5,-3L-8,-3C-8.829,-3 -9.5,-2.329 -9.5,-1.5C-9.5,-0.671 -8.829,0 -8,0L-5.5,0L-5.5,2.5C-5.5,3.329 -4.829,4 -4,4C-3.171,4 -2.5,3.329 -2.5,2.5L-2.5,0L0,0C0.829,0 1.5,-0.671 1.5,-1.5C1.5,-2.329 0.829,-3 0,-3" style="fill:white;fill-opacity:0.15;fill-rule:nonzero;"/>
            </g>
            <g transform="matrix(1,0,0,1,587.665,270.321)">
                <path d="M0,-3L-2.5,-3L-2.5,-5.5C-2.5,-6.329 -3.171,-7 -4,-7C-4.829,-7 -5.5,-6.329 -5.5,-5.5L-5.5,-3L-8,-3C-8.829,-3 -9.5,-2.329 -9.5,-1.5C-9.5,-0.671 -8.829,0 -8,0L-5.5,0L-5.5,2.5C-5.5,3.329 -4.829,4 -4,4C-3.171,4 -2.5,3.329 -2.5,2.5L-2.5,0L0,0C0.829,0 1.5,-0.671 1.5,-1.5C1.5,-2.329 0.829,-3 0,-3" style="fill:white;fill-opacity:0.15;fill-rule:nonzero;"/>
            </g>
            <g transform="matrix(1,0,0,1,388.492,473.458)">
                <path d="M0,-3L-2.5,-3L-2.5,-5.5C-2.5,-6.329 -3.171,-7 -4,-7C-4.829,-7 -5.5,-6.329 -5.5,-5.5L-5.5,-3L-8,-3C-8.829,-3 -9.5,-2.329 -9.5,-1.5C-9.5,-0.671 -8.829,0 -8,0L-5.5,0L-5.5,2.5C-5.5,3.329 -4.829,4 -4,4C-3.171,4 -2.5,3.329 -2.5,2.5L-2.5,0L0,0C0.829,0 1.5,-0.671 1.5,-1.5C1.5,-2.329 0.829,-3 0,-3" style="fill:white;fill-opacity:0.15;fill-rule:nonzero;"/>
            </g>
            <g transform="matrix(1,0,0,1,176.268,454.798)">
                <path d="M0,-3L-2.5,-3L-2.5,-5.5C-2.5,-6.329 -3.171,-7 -4,-7C-4.829,-7 -5.5,-6.329 -5.5,-5.5L-5.5,-3L-8,-3C-8.829,-3 -9.5,-2.329 -9.5,-1.5C-9.5,-0.671 -8.829,0 -8,0L-5.5,0L-5.5,2.5C-5.5,3.329 -4.829,4 -4,4C-3.171,4 -2.5,3.329 -2.5,2.5L-2.5,0L0,0C0.829,0 1.5,-0.671 1.5,-1.5C1.5,-2.329 0.829,-3 0,-3" style="fill:white;fill-opacity:0.15;fill-rule:nonzero;"/>
            </g>
            <g transform="matrix(1,0,0,1,487.524,460.298)">
                <path d="M0,-3L-2.5,-3L-2.5,-5.5C-2.5,-6.329 -3.171,-7 -4,-7C-4.829,-7 -5.5,-6.329 -5.5,-5.5L-5.5,-3L-8,-3C-8.829,-3 -9.5,-2.329 -9.5,-1.5C-9.5,-0.671 -8.829,0 -8,0L-5.5,0L-5.5,2.5C-5.5,3.329 -4.829,4 -4,4C-3.171,4 -2.5,3.329 -2.5,2.5L-2.5,0L0,0C0.829,0 1.5,-0.671 1.5,-1.5C1.5,-2.329 0.829,-3 0,-3" style="fill:white;fill-opacity:0.15;fill-rule:nonzero;"/>
            </g>
            <g transform="matrix(1,0,0,1,309.677,472)">
                <path d="M0,-3L-2.5,-3L-2.5,-5.5C-2.5,-6.329 -3.171,-7 -4,-7C-4.829,-7 -5.5,-6.329 -5.5,-5.5L-5.5,-3L-8,-3C-8.829,-3 -9.5,-2.329 -9.5,-1.5C-9.5,-0.671 -8.829,0 -8,0L-5.5,0L-5.5,2.5C-5.5,3.329 -4.829,4 -4,4C-3.171,4 -2.5,3.329 -2.5,2.5L-2.5,0L0,0C0.829,0 1.5,-0.671 1.5,-1.5C1.5,-2.329 0.829,-3 0,-3" style="fill:white;fill-opacity:0.15;fill-rule:nonzero;"/>
            </g>
            <g transform="matrix(1,0,0,1,339.337,585.862)">
                <path d="M0,-3L-2.5,-3L-2.5,-5.5C-2.5,-6.329 -3.171,-7 -4,-7C-4.829,-7 -5.5,-6.329 -5.5,-5.5L-5.5,-3L-8,-3C-8.829,-3 -9.5,-2.329 -9.5,-1.5C-9.5,-0.671 -8.829,0 -8,0L-5.5,0L-5.5,2.5C-5.5,3.329 -4.829,4 -4,4C-3.171,4 -2.5,3.329 -2.5,2.5L-2.5,0L0,0C0.829,0 1.5,-0.671 1.5,-1.5C1.5,-2.329 0.829,-3 0,-3" style="fill:white;fill-opacity:0.15;fill-rule:nonzero;"/>
            </g>
            <g transform="matrix(1,0,0,1,446.171,555.292)">
                <path d="M0,-3L-2.5,-3L-2.5,-5.5C-2.5,-6.329 -3.171,-7 -4,-7C-4.829,-7 -5.5,-6.329 -5.5,-5.5L-5.5,-3L-8,-3C-8.829,-3 -9.5,-2.329 -9.5,-1.5C-9.5,-0.671 -8.829,0 -8,0L-5.5,0L-5.5,2.5C-5.5,3.329 -4.829,4 -4,4C-3.171,4 -2.5,3.329 -2.5,2.5L-2.5,0L0,0C0.829,0 1.5,-0.671 1.5,-1.5C1.5,-2.329 0.829,-3 0,-3" style="fill:white;fill-opacity:0.15;fill-rule:nonzero;"/>
            </g>
            <g transform="matrix(1,0,0,1,201.741,563.777)">
                <path d="M0,-3L-2.5,-3L-2.5,-5.5C-2.5,-6.329 -3.171,-7 -4,-7C-4.829,-7 -5.5,-6.329 -5.5,-5.5L-5.5,-3L-8,-3C-8.829,-3 -9.5,-2.329 -9.5,-1.5C-9.5,-0.671 -8.829,0 -8,0L-5.5,0L-5.5,2.5C-5.5,3.329 -4.829,4 -4,4C-3.171,4 -2.5,3.329 -2.5,2.5L-2.5,0L0,0C0.829,0 1.5,-0.671 1.5,-1.5C1.5,-2.329 0.829,-3 0,-3" style="fill:white;fill-opacity:0.15;fill-rule:nonzero;"/>
            </g>
            <g transform="matrix(1,0,0,1,26.5127,552.241)">
                <path d="M0,-3L-2.5,-3L-2.5,-5.5C-2.5,-6.329 -3.171,-7 -4,-7C-4.829,-7 -5.5,-6.329 -5.5,-5.5L-5.5,-3L-8,-3C-8.829,-3 -9.5,-2.329 -9.5,-1.5C-9.5,-0.671 -8.829,0 -8,0L-5.5,0L-5.5,2.5C-5.5,3.329 -4.829,4 -4,4C-3.171,4 -2.5,3.329 -2.5,2.5L-2.5,0L0,0C0.829,0 1.5,-0.671 1.5,-1.5C1.5,-2.329 0.829,-3 0,-3" style="fill:white;fill-opacity:0.15;fill-rule:nonzero;"/>
            </g>
            <g transform="matrix(1,0,0,1,582.165,573.777)">
                <path d="M0,-3L-2.5,-3L-2.5,-5.5C-2.5,-6.329 -3.171,-7 -4,-7C-4.829,-7 -5.5,-6.329 -5.5,-5.5L-5.5,-3L-8,-3C-8.829,-3 -9.5,-2.329 -9.5,-1.5C-9.5,-0.671 -8.829,0 -8,0L-5.5,0L-5.5,2.5C-5.5,3.329 -4.829,4 -4,4C-3.171,4 -2.5,3.329 -2.5,2.5L-2.5,0L0,0C0.829,0 1.5,-0.671 1.5,-1.5C1.5,-2.329 0.829,-3 0,-3" style="fill:white;fill-opacity:0.15;fill-rule:nonzero;"/>
            </g>
            <g transform="matrix(1,0,0,1,587.665,387.012)">
                <path d="M0,-3L-2.5,-3L-2.5,-5.5C-2.5,-6.329 -3.171,-7 -4,-7C-4.829,-7 -5.5,-6.329 -5.5,-5.5L-5.5,-3L-8,-3C-8.829,-3 -9.5,-2.329 -9.5,-1.5C-9.5,-0.671 -8.829,0 -8,0L-5.5,0L-5.5,2.5C-5.5,3.329 -4.829,4 -4,4C-3.171,4 -2.5,3.329 -2.5,2.5L-2.5,0L0,0C0.829,0 1.5,-0.671 1.5,-1.5C1.5,-2.329 0.829,-3 0,-3" style="fill:white;fill-opacity:0.15;fill-rule:nonzero;"/>
            </g>
            <g transform="matrix(1,0,0,1,340.337,333.266)">
                <path d="M0,-5C-1.378,-5 -2.5,-3.878 -2.5,-2.5C-2.5,-1.122 -1.378,0 0,0C1.378,0 2.5,-1.122 2.5,-2.5C2.5,-3.878 1.378,-5 0,-5M0,3C-3.033,3 -5.5,0.533 -5.5,-2.5C-5.5,-5.533 -3.033,-8 0,-8C3.033,-8 5.5,-5.533 5.5,-2.5C5.5,0.533 3.033,3 0,3" style="fill:white;fill-opacity:0.15;fill-rule:nonzero;"/>
            </g>
            <g transform="matrix(1,0,0,1,241.959,402.362)">
                <path d="M0,-5C-1.378,-5 -2.5,-3.878 -2.5,-2.5C-2.5,-1.122 -1.378,0 0,0C1.378,0 2.5,-1.122 2.5,-2.5C2.5,-3.878 1.378,-5 0,-5M0,3C-3.033,3 -5.5,0.533 -5.5,-2.5C-5.5,-5.533 -3.033,-8 0,-8C3.033,-8 5.5,-5.533 5.5,-2.5C5.5,0.533 3.033,3 0,3" style="fill:white;fill-opacity:0.15;fill-rule:nonzero;"/>
            </g>
            <g transform="matrix(1,0,0,1,101.943,507.808)">
                <path d="M0,-5C-1.378,-5 -2.5,-3.878 -2.5,-2.5C-2.5,-1.122 -1.378,0 0,0C1.378,0 2.5,-1.122 2.5,-2.5C2.5,-3.878 1.378,-5 0,-5M0,3C-3.033,3 -5.5,0.533 -5.5,-2.5C-5.5,-5.533 -3.033,-8 0,-8C3.033,-8 5.5,-5.533 5.5,-2.5C5.5,0.533 3.033,3 0,3" style="fill:white;fill-opacity:0.15;fill-rule:nonzero;"/>
            </g>
            <g transform="matrix(1,0,0,1,101.943,182.969)">
                <path d="M0,-5C-1.378,-5 -2.5,-3.878 -2.5,-2.5C-2.5,-1.122 -1.378,0 0,0C1.378,0 2.5,-1.122 2.5,-2.5C2.5,-3.878 1.378,-5 0,-5M0,3C-3.033,3 -5.5,0.533 -5.5,-2.5C-5.5,-5.533 -3.033,-8 0,-8C3.033,-8 5.5,-5.533 5.5,-2.5C5.5,0.533 3.033,3 0,3" style="fill:white;fill-opacity:0.15;fill-rule:nonzero;"/>
            </g>
            <g transform="matrix(1,0,0,1,191.269,31.3311)">
                <path d="M0,-5C-1.378,-5 -2.5,-3.878 -2.5,-2.5C-2.5,-1.122 -1.378,0 0,0C1.378,0 2.5,-1.122 2.5,-2.5C2.5,-3.878 1.378,-5 0,-5M0,3C-3.033,3 -5.5,0.533 -5.5,-2.5C-5.5,-5.533 -3.033,-8 0,-8C3.033,-8 5.5,-5.533 5.5,-2.5C5.5,0.533 3.033,3 0,3" style="fill:white;fill-opacity:0.15;fill-rule:nonzero;"/>
            </g>
            <g transform="matrix(1,0,0,1,241.959,203.241)">
                <path d="M0,-5C-1.378,-5 -2.5,-3.878 -2.5,-2.5C-2.5,-1.122 -1.378,0 0,0C1.378,0 2.5,-1.122 2.5,-2.5C2.5,-3.878 1.378,-5 0,-5M0,3C-3.033,3 -5.5,0.533 -5.5,-2.5C-5.5,-5.533 -3.033,-8 0,-8C3.033,-8 5.5,-5.533 5.5,-2.5C5.5,0.533 3.033,3 0,3" style="fill:white;fill-opacity:0.15;fill-rule:nonzero;"/>
            </g>
            <g transform="matrix(1,0,0,1,383.267,197.741)">
                <path d="M0,-5C-1.378,-5 -2.5,-3.878 -2.5,-2.5C-2.5,-1.122 -1.378,0 0,0C1.378,0 2.5,-1.122 2.5,-2.5C2.5,-3.878 1.378,-5 0,-5M0,3C-3.033,3 -5.5,0.533 -5.5,-2.5C-5.5,-5.533 -3.033,-8 0,-8C3.033,-8 5.5,-5.533 5.5,-2.5C5.5,0.533 3.033,3 0,3" style="fill:white;fill-opacity:0.15;fill-rule:nonzero;"/>
            </g>
            <g transform="matrix(1,0,0,1,501.067,402.362)">
                <path d="M0,-5C-1.378,-5 -2.5,-3.878 -2.5,-2.5C-2.5,-1.122 -1.378,0 0,0C1.378,0 2.5,-1.122 2.5,-2.5C2.5,-3.878 1.378,-5 0,-5M0,3C-3.033,3 -5.5,0.533 -5.5,-2.5C-5.5,-5.533 -3.033,-8 0,-8C3.033,-8 5.5,-5.533 5.5,-2.5C5.5,0.533 3.033,3 0,3" style="fill:white;fill-opacity:0.15;fill-rule:nonzero;"/>
            </g>
            <g transform="matrix(1,0,0,1,419.014,581.362)">
                <path d="M0,-5C-1.378,-5 -2.5,-3.878 -2.5,-2.5C-2.5,-1.122 -1.378,0 0,0C1.378,0 2.5,-1.122 2.5,-2.5C2.5,-3.878 1.378,-5 0,-5M0,3C-3.033,3 -5.5,0.533 -5.5,-2.5C-5.5,-5.533 -3.033,-8 0,-8C3.033,-8 5.5,-5.533 5.5,-2.5C5.5,0.533 3.033,3 0,3" style="fill:white;fill-opacity:0.15;fill-rule:nonzero;"/>
            </g>
            <g transform="matrix(1,0,0,1,216.623,241.266)">
                <path d="M0,5C-1.381,5 -2.508,3.881 -2.508,2.5C-2.508,1.119 -1.397,0 -0.016,0L0,0C1.381,0 2.5,1.119 2.5,2.5C2.5,3.881 1.381,5 0,5" style="fill:white;fill-opacity:0.15;fill-rule:nonzero;"/>
            </g>
            <g transform="matrix(1,0,0,1,271.492,145)">
                <path d="M0,5C-1.381,5 -2.508,3.881 -2.508,2.5C-2.508,1.119 -1.397,0 -0.017,0L0,0C1.381,0 2.5,1.119 2.5,2.5C2.5,3.881 1.381,5 0,5" style="fill:white;fill-opacity:0.15;fill-rule:nonzero;"/>
            </g>
            <g transform="matrix(1,0,0,1,196.492,69)">
                <path d="M0,5C-1.381,5 -2.508,3.881 -2.508,2.5C-2.508,1.119 -1.397,0 -0.017,0L0,0C1.381,0 2.5,1.119 2.5,2.5C2.5,3.881 1.381,5 0,5" style="fill:white;fill-opacity:0.15;fill-rule:nonzero;"/>
            </g>
            <g transform="matrix(1,0,0,1,112.795,116.49)">
                <path d="M0,5C-1.381,5 -2.508,3.881 -2.508,2.5C-2.508,1.119 -1.397,0 -0.017,0L0,0C1.381,0 2.5,1.119 2.5,2.5C2.5,3.881 1.381,5 0,5" style="fill:white;fill-opacity:0.15;fill-rule:nonzero;"/>
            </g>
            <g transform="matrix(1,0,0,1,22.5166,23.3311)">
                <path d="M0,5C-1.381,5 -2.508,3.881 -2.508,2.5C-2.508,1.119 -1.397,0 -0.016,0L0,0C1.381,0 2.5,1.119 2.5,2.5C2.5,3.881 1.381,5 0,5" style="fill:white;fill-opacity:0.15;fill-rule:nonzero;"/>
            </g>
            <g transform="matrix(1,0,0,1,152.759,8.3257)">
                <path d="M0,5C-1.381,5 -2.508,3.881 -2.508,2.5C-2.508,1.119 -1.397,0 -0.017,0L0,0C1.381,0 2.5,1.119 2.5,2.5C2.5,3.881 1.381,5 0,5" style="fill:white;fill-opacity:0.15;fill-rule:nonzero;"/>
            </g>
            <g transform="matrix(1,0,0,1,312.987,48.3535)">
                <path d="M0,5C-1.381,5 -2.508,3.881 -2.508,2.5C-2.508,1.119 -1.397,0 -0.016,0L0,0C1.381,0 2.5,1.119 2.5,2.5C2.5,3.881 1.381,5 0,5" style="fill:white;fill-opacity:0.15;fill-rule:nonzero;"/>
            </g>
            <g transform="matrix(1,0,0,1,375.267,77.5864)">
                <path d="M0,5C-1.381,5 -2.508,3.881 -2.508,2.5C-2.508,1.119 -1.397,0 -0.016,0L0,0C1.381,0 2.5,1.119 2.5,2.5C2.5,3.881 1.381,5 0,5" style="fill:white;fill-opacity:0.15;fill-rule:nonzero;"/>
            </g>
            <g transform="matrix(1,0,0,1,483.528,87.582)">
                <path d="M0,5C-1.381,5 -2.508,3.881 -2.508,2.5C-2.508,1.119 -1.397,0 -0.016,0L0,0C1.381,0 2.5,1.119 2.5,2.5C2.5,3.881 1.381,5 0,5" style="fill:white;fill-opacity:0.15;fill-rule:nonzero;"/>
            </g>
            <g transform="matrix(1,0,0,1,403.982,139.088)">
                <path d="M0,5C-1.381,5 -2.508,3.881 -2.508,2.5C-2.508,1.119 -1.397,0 -0.016,0L0,0C1.381,0 2.5,1.119 2.5,2.5C2.5,3.881 1.381,5 0,5" style="fill:white;fill-opacity:0.15;fill-rule:nonzero;"/>
            </g>
            <g transform="matrix(1,0,0,1,442.442,212.749)">
                <path d="M0,5C-1.381,5 -2.508,3.881 -2.508,2.5C-2.508,1.119 -1.397,0 -0.016,0L0,0C1.381,0 2.5,1.119 2.5,2.5C2.5,3.881 1.381,5 0,5" style="fill:white;fill-opacity:0.15;fill-rule:nonzero;"/>
            </g>
            <g transform="matrix(1,0,0,1,467.113,281.006)">
                <path d="M0,5C-1.381,5 -2.508,3.881 -2.508,2.5C-2.508,1.119 -1.397,0 -0.016,0L0,0C1.381,0 2.5,1.119 2.5,2.5C2.5,3.881 1.381,5 0,5" style="fill:white;fill-opacity:0.15;fill-rule:nonzero;"/>
            </g>
            <g transform="matrix(1,0,0,1,547.665,229.992)">
                <path d="M0,5C-1.381,5 -2.508,3.881 -2.508,2.5C-2.508,1.119 -1.397,0 -0.016,0L0,0C1.381,0 2.5,1.119 2.5,2.5C2.5,3.881 1.381,5 0,5" style="fill:white;fill-opacity:0.15;fill-rule:nonzero;"/>
            </g>
            <g transform="matrix(1,0,0,1,583.67,147.5)">
                <path d="M0,5C-1.381,5 -2.508,3.881 -2.508,2.5C-2.508,1.119 -1.397,0 -0.017,0L0,0C1.381,0 2.5,1.119 2.5,2.5C2.5,3.881 1.381,5 0,5" style="fill:white;fill-opacity:0.15;fill-rule:nonzero;"/>
            </g>
            <g transform="matrix(1,0,0,1,594.678,37.1338)">
                <path d="M0,5C-1.381,5 -2.508,3.881 -2.508,2.5C-2.508,1.119 -1.397,0 -0.016,0L0,0C1.381,0 2.5,1.119 2.5,2.5C2.5,3.881 1.381,5 0,5" style="fill:white;fill-opacity:0.15;fill-rule:nonzero;"/>
            </g>
            <g transform="matrix(1,0,0,1,572.67,319.985)">
                <path d="M0,5C-1.381,5 -2.508,3.881 -2.508,2.5C-2.508,1.119 -1.397,0 -0.017,0L0,0C1.381,0 2.5,1.119 2.5,2.5C2.5,3.881 1.381,5 0,5" style="fill:white;fill-opacity:0.15;fill-rule:nonzero;"/>
            </g>
            <g transform="matrix(1,0,0,1,589.17,480.656)">
                <path d="M0,5C-1.381,5 -2.508,3.881 -2.508,2.5C-2.508,1.119 -1.397,0 -0.017,0L0,0C1.381,0 2.5,1.119 2.5,2.5C2.5,3.881 1.381,5 0,5" style="fill:white;fill-opacity:0.15;fill-rule:nonzero;"/>
            </g>
            <g transform="matrix(1,0,0,1,537.212,465.5)">
                <path d="M0,5C-1.381,5 -2.508,3.881 -2.508,2.5C-2.508,1.119 -1.397,0 -0.017,0L0,0C1.381,0 2.5,1.119 2.5,2.5C2.5,3.881 1.381,5 0,5" style="fill:white;fill-opacity:0.15;fill-rule:nonzero;"/>
            </g>
            <g transform="matrix(1,0,0,1,580.674,431.826)">
                <path d="M0,5C-1.381,5 -2.508,3.881 -2.508,2.5C-2.508,1.119 -1.397,0 -0.016,0L0,0C1.381,0 2.5,1.119 2.5,2.5C2.5,3.881 1.381,5 0,5" style="fill:white;fill-opacity:0.15;fill-rule:nonzero;"/>
            </g>
            <g transform="matrix(1,0,0,1,495.571,483.156)">
                <path d="M0,5C-1.381,5 -2.508,3.881 -2.508,2.5C-2.508,1.119 -1.397,0 -0.016,0L0,0C1.381,0 2.5,1.119 2.5,2.5C2.5,3.881 1.381,5 0,5" style="fill:white;fill-opacity:0.15;fill-rule:nonzero;"/>
            </g>
            <g transform="matrix(1,0,0,1,532.282,388.512)">
                <path d="M0,5C-1.381,5 -2.508,3.881 -2.508,2.5C-2.508,1.119 -1.397,0 -0.016,0L0,0C1.381,0 2.5,1.119 2.5,2.5C2.5,3.881 1.381,5 0,5" style="fill:white;fill-opacity:0.15;fill-rule:nonzero;"/>
            </g>
            <g transform="matrix(1,0,0,1,442.176,502.808)">
                <path d="M0,5C-1.381,5 -2.508,3.881 -2.508,2.5C-2.508,1.119 -1.397,0 -0.017,0L0,0C1.381,0 2.5,1.119 2.5,2.5C2.5,3.881 1.381,5 0,5" style="fill:white;fill-opacity:0.15;fill-rule:nonzero;"/>
            </g>
            <g transform="matrix(1,0,0,1,464.609,587.362)">
                <path d="M0,5C-1.381,5 -2.508,3.881 -2.508,2.5C-2.508,1.119 -1.397,0 -0.017,0L0,0C1.381,0 2.5,1.119 2.5,2.5C2.5,3.881 1.381,5 0,5" style="fill:white;fill-opacity:0.15;fill-rule:nonzero;"/>
            </g>
            <g transform="matrix(1,0,0,1,547.867,587.362)">
                <path d="M0,5C-1.381,5 -2.508,3.881 -2.508,2.5C-2.508,1.119 -1.397,0 -0.016,0L0,0C1.381,0 2.5,1.119 2.5,2.5C2.5,3.881 1.381,5 0,5" style="fill:white;fill-opacity:0.15;fill-rule:nonzero;"/>
            </g>
            <g transform="matrix(1,0,0,1,376.492,558)">
                <path d="M0,5C-1.381,5 -2.508,3.881 -2.508,2.5C-2.508,1.119 -1.397,0 -0.017,0L0,0C1.381,0 2.5,1.119 2.5,2.5C2.5,3.881 1.381,5 0,5" style="fill:white;fill-opacity:0.15;fill-rule:nonzero;"/>
            </g>
            <g transform="matrix(1,0,0,1,315.492,548)">
                <path d="M0,5C-1.381,5 -2.508,3.881 -2.508,2.5C-2.508,1.119 -1.397,0 -0.017,0L0,0C1.381,0 2.5,1.119 2.5,2.5C2.5,3.881 1.381,5 0,5" style="fill:white;fill-opacity:0.15;fill-rule:nonzero;"/>
            </g>
            <g transform="matrix(1,0,0,1,401.71,369.437)">
                <path d="M0,5C-1.381,5 -2.508,3.881 -2.508,2.5C-2.508,1.119 -1.397,0 -0.017,0L0,0C1.381,0 2.5,1.119 2.5,2.5C2.5,3.881 1.381,5 0,5" style="fill:white;fill-opacity:0.15;fill-rule:nonzero;"/>
            </g>
            <g transform="matrix(1,0,0,1,282.359,437.544)">
                <path d="M0,5C-1.381,5 -2.508,3.881 -2.508,2.5C-2.508,1.119 -1.397,0 -0.017,0L0,0C1.381,0 2.5,1.119 2.5,2.5C2.5,3.881 1.381,5 0,5" style="fill:white;fill-opacity:0.15;fill-rule:nonzero;"/>
            </g>
            <g transform="matrix(1,0,0,1,263.018,518.701)">
                <path d="M0,5C-1.381,5 -2.508,3.881 -2.508,2.5C-2.508,1.119 -1.397,0 -0.016,0L0,0C1.381,0 2.5,1.119 2.5,2.5C2.5,3.881 1.381,5 0,5" style="fill:white;fill-opacity:0.15;fill-rule:nonzero;"/>
            </g>
            <g transform="matrix(1,0,0,1,205.987,504.8)">
                <path d="M0,5C-1.381,5 -2.508,3.881 -2.508,2.5C-2.508,1.119 -1.397,0 -0.016,0L0,0C1.381,0 2.5,1.119 2.5,2.5C2.5,3.881 1.381,5 0,5" style="fill:white;fill-opacity:0.15;fill-rule:nonzero;"/>
            </g>
            <g transform="matrix(1,0,0,1,159.308,581.862)">
                <path d="M0,5C-1.381,5 -2.508,3.881 -2.508,2.5C-2.508,1.119 -1.397,0 -0.017,0L0,0C1.381,0 2.5,1.119 2.5,2.5C2.5,3.881 1.381,5 0,5" style="fill:white;fill-opacity:0.15;fill-rule:nonzero;"/>
            </g>
            <g transform="matrix(1,0,0,1,123.795,435.826)">
                <path d="M0,5C-1.381,5 -2.508,3.881 -2.508,2.5C-2.508,1.119 -1.397,0 -0.017,0L0,0C1.381,0 2.5,1.119 2.5,2.5C2.5,3.881 1.381,5 0,5" style="fill:white;fill-opacity:0.15;fill-rule:nonzero;"/>
            </g>
            <g transform="matrix(1,0,0,1,118.295,551.292)">
                <path d="M0,5C-1.381,5 -2.508,3.881 -2.508,2.5C-2.508,1.119 -1.397,0 -0.017,0L0,0C1.381,0 2.5,1.119 2.5,2.5C2.5,3.881 1.381,5 0,5" style="fill:white;fill-opacity:0.15;fill-rule:nonzero;"/>
            </g>
            <g transform="matrix(1,0,0,1,41.1641,515.186)">
                <path d="M0,5C-1.381,5 -2.508,3.881 -2.508,2.5C-2.508,1.119 -1.397,0 -0.016,0L0,0C1.381,0 2.5,1.119 2.5,2.5C2.5,3.881 1.381,5 0,5" style="fill:white;fill-opacity:0.15;fill-rule:nonzero;"/>
            </g>
            <g transform="matrix(1,0,0,1,172.271,407.519)">
                <path d="M0,5C-1.381,5 -2.508,3.881 -2.508,2.5C-2.508,1.119 -1.397,0 -0.016,0L0,0C1.381,0 2.5,1.119 2.5,2.5C2.5,3.881 1.381,5 0,5" style="fill:white;fill-opacity:0.15;fill-rule:nonzero;"/>
            </g>
            <g transform="matrix(1,0,0,1,226.012,433.326)">
                <path d="M0,5C-1.381,5 -2.508,3.881 -2.508,2.5C-2.508,1.119 -1.397,0 -0.016,0L0,0C1.381,0 2.5,1.119 2.5,2.5C2.5,3.881 1.381,5 0,5" style="fill:white;fill-opacity:0.15;fill-rule:nonzero;"/>
            </g>
            <g transform="matrix(1,0,0,1,321.841,291.494)">
                <path d="M0,5C-1.381,5 -2.508,3.881 -2.508,2.5C-2.508,1.119 -1.397,0 -0.016,0L0,0C1.381,0 2.5,1.119 2.5,2.5C2.5,3.881 1.381,5 0,5" style="fill:white;fill-opacity:0.15;fill-rule:nonzero;"/>
            </g>
            <g transform="matrix(1,0,0,1,232.195,292.5)">
                <path d="M0,5C-1.381,5 -2.508,3.881 -2.508,2.5C-2.508,1.119 -1.397,0 -0.017,0L0,0C1.381,0 2.5,1.119 2.5,2.5C2.5,3.881 1.381,5 0,5" style="fill:white;fill-opacity:0.15;fill-rule:nonzero;"/>
            </g>
            <g transform="matrix(1,0,0,1,246.996,361.112)">
                <path d="M0,5C-1.381,5 -2.508,3.881 -2.508,2.5C-2.508,1.119 -1.397,0 -0.016,0L0,0C1.381,0 2.5,1.119 2.5,2.5C2.5,3.881 1.381,5 0,5" style="fill:white;fill-opacity:0.15;fill-rule:nonzero;"/>
            </g>
            <g transform="matrix(1,0,0,1,254.508,234)">
                <path d="M0,5C-1.381,5 -2.508,3.881 -2.508,2.5C-2.508,1.119 -1.397,0 -0.016,0L0,0C1.381,0 2.5,1.119 2.5,2.5C2.5,3.881 1.381,5 0,5" style="fill:white;fill-opacity:0.15;fill-rule:nonzero;"/>
            </g>
            <g transform="matrix(1,0,0,1,293.573,210.249)">
                <path d="M0,5C-1.381,5 -2.508,3.881 -2.508,2.5C-2.508,1.119 -1.397,0 -0.017,0L0,0C1.381,0 2.5,1.119 2.5,2.5C2.5,3.881 1.381,5 0,5" style="fill:white;fill-opacity:0.15;fill-rule:nonzero;"/>
            </g>
            <g transform="matrix(1,0,0,1,182.24,198.241)">
                <path d="M0,5C-1.381,5 -2.508,3.881 -2.508,2.5C-2.508,1.119 -1.397,0 -0.016,0L0,0C1.381,0 2.5,1.119 2.5,2.5C2.5,3.881 1.381,5 0,5" style="fill:white;fill-opacity:0.15;fill-rule:nonzero;"/>
            </g>
            <g transform="matrix(1,0,0,1,131.928,290)">
                <path d="M0,5C-1.381,5 -2.508,3.881 -2.508,2.5C-2.508,1.119 -1.397,0 -0.016,0L0,0C1.381,0 2.5,1.119 2.5,2.5C2.5,3.881 1.381,5 0,5" style="fill:white;fill-opacity:0.15;fill-rule:nonzero;"/>
            </g>
            <g transform="matrix(1,0,0,1,61.4961,186.04)">
                <path d="M0,5C-1.381,5 -2.508,3.881 -2.508,2.5C-2.508,1.119 -1.397,0 -0.016,0L0,0C1.381,0 2.5,1.119 2.5,2.5C2.5,3.881 1.381,5 0,5" style="fill:white;fill-opacity:0.15;fill-rule:nonzero;"/>
            </g>
            <g transform="matrix(1,0,0,1,20.0039,246.534)">
                <path d="M0,5C-1.381,5 -2.508,3.881 -2.508,2.5C-2.508,1.119 -1.397,0 -0.016,0L0,0C1.381,0 2.5,1.119 2.5,2.5C2.5,3.881 1.381,5 0,5" style="fill:white;fill-opacity:0.15;fill-rule:nonzero;"/>
            </g>
            <g transform="matrix(1,0,0,1,75.9956,323.985)">
                <path d="M0,5C-1.381,5 -2.508,3.881 -2.508,2.5C-2.508,1.119 -1.397,0 -0.016,0L0,0C1.381,0 2.5,1.119 2.5,2.5C2.5,3.881 1.381,5 0,5" style="fill:white;fill-opacity:0.15;fill-rule:nonzero;"/>
            </g>
            <g transform="matrix(1,0,0,1,12.9956,353.785)">
                <path d="M0,5C-1.381,5 -2.508,3.881 -2.508,2.5C-2.508,1.119 -1.397,0 -0.016,0L0,0C1.381,0 2.5,1.119 2.5,2.5C2.5,3.881 1.381,5 0,5" style="fill:white;fill-opacity:0.15;fill-rule:nonzero;"/>
            </g>
            <g transform="matrix(1,0,0,1,15.4995,460.5)">
                <path d="M0,5C-1.381,5 -2.508,3.881 -2.508,2.5C-2.508,1.119 -1.397,0 -0.016,0L0,0C1.381,0 2.5,1.119 2.5,2.5C2.5,3.881 1.381,5 0,5" style="fill:white;fill-opacity:0.15;fill-rule:nonzero;"/>
            </g>
            <g transform="matrix(1,0,0,1,2.5083,133.754)">
                <path d="M0,5C-1.381,5 -2.508,3.881 -2.508,2.5C-2.508,1.119 -1.397,0 -0.017,0L0,0C1.381,0 2.5,1.119 2.5,2.5C2.5,3.881 1.381,5 0,5" style="fill:white;fill-opacity:0.15;fill-rule:nonzero;"/>
            </g>
            <g transform="matrix(1,0,0,1,341.71,399.437)">
                <path d="M0,5C-1.381,5 -2.508,3.881 -2.508,2.5C-2.508,1.119 -1.397,0 -0.017,0L0,0C1.381,0 2.5,1.119 2.5,2.5C2.5,3.881 1.381,5 0,5" style="fill:white;fill-opacity:0.15;fill-rule:nonzero;"/>
            </g>
            <g transform="matrix(1,0,0,1,329.841,485.457)">
                <path d="M0,5C-1.381,5 -2.508,3.881 -2.508,2.5C-2.508,1.119 -1.397,0 -0.016,0L0,0C1.381,0 2.5,1.119 2.5,2.5C2.5,3.881 1.381,5 0,5" style="fill:white;fill-opacity:0.15;fill-rule:nonzero;"/>
            </g>
            <g transform="matrix(1,0,0,1,386.71,416.437)">
                <path d="M0,5C-1.381,5 -2.508,3.881 -2.508,2.5C-2.508,1.119 -1.397,0 -0.017,0L0,0C1.381,0 2.5,1.119 2.5,2.5C2.5,3.881 1.381,5 0,5" style="fill:white;fill-opacity:0.15;fill-rule:nonzero;"/>
            </g>
        </g>
    </g>
</svg>
