<?xml version="1.0" encoding="UTF-8" standalone="no"?>
<!DOCTYPE svg PUBLIC "-//W3C//DTD SVG 1.1//EN" "http://www.w3.org/Graphics/SVG/1.1/DTD/svg11.dtd">
<svg width="100%" height="100%" viewBox="0 0 859 268" version="1.1" xmlns="http://www.w3.org/2000/svg" xmlns:xlink="http://www.w3.org/1999/xlink" xml:space="preserve" xmlns:serif="http://www.serif.com/" style="fill-rule:evenodd;clip-rule:evenodd;stroke-miterlimit:10;">
    <g transform="matrix(1,0,0,1,-718.9,-57.1221)">
        <g transform="matrix(1,0,0,1,718.9,57.1221)">
            <path d="M39.088,227.945L45.117,215.787L63.492,207.221L113.506,173.925L145.559,162.872L144.868,168.398L95.545,224.215L102.868,195.201L63.193,227.945L39.088,227.945ZM112.405,227.945L147.355,195.339L141.69,204.596L122.933,227.945L112.405,227.945ZM242.818,227.945L172.656,227.945L175.954,223.247L192.256,209.984L200.822,207.221L225.829,173.51L236.605,160.662L238.539,176.826L262.855,147.537L242.818,227.945ZM275.865,227.945L309.277,190.918L329.724,185.392L352.244,182.353L366.474,191.885L330.968,213.715L349,227.945L275.865,227.945ZM28.228,224.418C27.464,223.235 27.019,221.835 27.019,220.346L27.019,27.477C27.019,23.332 30.473,19.878 34.617,19.878L434.172,19.878C438.317,19.878 441.771,23.332 441.771,27.477L441.771,220.346C441.771,223.758 439.43,226.702 436.29,227.636L381.534,188.984L354.593,162.043L335.527,167.984L312.316,146.017L257.467,31.345L233.566,56.352L211.46,88.266L170.427,121.148L143.624,154.03L109.223,167.017L82.282,191.885L58.242,187.879L28.228,224.418ZM290.487,171.714L309.277,166.464L297.257,180.28L283.303,194.649L280.954,187.464L290.487,171.714ZM239.921,92.826L242.546,107.056L213.533,164.254L210.217,129.99L207.039,126.536L169.598,169.366L153.157,185.668L192.671,123.359L209.802,103.049L216.296,102.082L242.408,58.286L254.842,48.2L239.921,92.826ZM267.691,105.813L263.27,134.826L262.165,136.622L252.908,145.879L244.066,134.135L243.099,126.951L261.888,69.339L262.165,90.891L267.691,105.813Z" style="fill:white;"/>
        </g>
        <g transform="matrix(1,0,0,1.43177,424.066,-208.685)">
            <path d="M963,301L963,258" style="fill:none;fill-rule:nonzero;stroke:white;stroke-width:2px;"/>
        </g>
        <g transform="matrix(0.725304,0,0,0.725304,771.235,-55.4545)">
            <text x="562.026px" y="331.48px" style="font-family:'ArialMT', 'Arial', sans-serif;font-size:49.634px;fill:white;">MOUNT<tspan x="740.302px 773.408px " y="331.48px 331.48px ">AI</tspan>N</text>
            <text x="674.139px" y="382.739px" style="font-family:'ArialMT', 'Arial', sans-serif;font-size:49.634px;fill:white;">BREW</text>
        </g>
        <g transform="matrix(0.684162,0,0,0.684162,869.955,-17.485)">
            <text x="784.828px" y="327.041px" style="font-family:'ArialMT', 'Arial', sans-serif;font-size:52.619px;fill:white;">COFFEE</text>
        </g>
    </g>
</svg>
